<mxfile host="www.draw.io" modified="2020-08-21T00:09:50.938Z" agent="5.0 (X11; Linux x86_64) AppleWebKit/537.36 (KHTML, like Gecko) Chrome/83.0.4103.97 Safari/537.36" etag="8OcANQtJ3vo2x3_QXxQp" version="13.6.4" type="gitlab">
  <diagram id="NdK-Iwu1NELwD2D8BtvP" name="Page-1">
    <mxGraphModel dx="2911" dy="1623" grid="0" gridSize="10" guides="1" tooltips="1" connect="1" arrows="1" fold="1" page="1" pageScale="1" pageWidth="1654" pageHeight="1169" math="0" shadow="0">
      <root>
        <mxCell id="0" />
        <mxCell id="1" parent="0" />
        <mxCell id="WGax3jqfb48JsYN1dhlF-207" value="" style="rounded=0;whiteSpace=wrap;html=1;" parent="1" vertex="1">
          <mxGeometry x="1000.9986394186582" y="3612.999411764706" width="120" height="60" as="geometry" />
        </mxCell>
        <mxCell id="WGax3jqfb48JsYN1dhlF-186" value=":ProgramaDeFormacion" style="rounded=0;whiteSpace=wrap;html=1;" parent="1" vertex="1">
          <mxGeometry x="727" y="3379" width="151" height="60" as="geometry" />
        </mxCell>
        <mxCell id="WGax3jqfb48JsYN1dhlF-175" value="" style="rounded=0;whiteSpace=wrap;html=1;" parent="1" vertex="1">
          <mxGeometry x="300.998133544922" y="3296.502801513672" width="120" height="60" as="geometry" />
        </mxCell>
        <mxCell id="WGax3jqfb48JsYN1dhlF-166" value="&lt;u&gt;:Curso&lt;/u&gt;" style="rounded=0;whiteSpace=wrap;html=1;" parent="1" vertex="1">
          <mxGeometry x="817" y="2967" width="147" height="60" as="geometry" />
        </mxCell>
        <mxCell id="WGax3jqfb48JsYN1dhlF-143" value="" style="rounded=0;whiteSpace=wrap;html=1;" parent="1" vertex="1">
          <mxGeometry x="1109" y="2644" width="120" height="56.67" as="geometry" />
        </mxCell>
        <mxCell id="WGax3jqfb48JsYN1dhlF-134" value="&lt;u&gt;:Instituto&lt;/u&gt;" style="rounded=0;whiteSpace=wrap;html=1;" parent="1" vertex="1">
          <mxGeometry x="720.004017130534" y="2449.0033333333336" width="120" height="60" as="geometry" />
        </mxCell>
        <mxCell id="WGax3jqfb48JsYN1dhlF-127" value="&lt;u&gt;:Curso&lt;/u&gt;" style="rounded=0;whiteSpace=wrap;html=1;" parent="1" vertex="1">
          <mxGeometry x="1000.9969274902344" y="1739.001717529297" width="120" height="60" as="geometry" />
        </mxCell>
        <mxCell id="WGax3jqfb48JsYN1dhlF-120" value="" style="rounded=0;whiteSpace=wrap;html=1;" parent="1" vertex="1">
          <mxGeometry x="953" y="1618" width="120" height="60" as="geometry" />
        </mxCell>
        <mxCell id="WGax3jqfb48JsYN1dhlF-49" value="" style="rounded=0;whiteSpace=wrap;html=1;" parent="1" vertex="1">
          <mxGeometry x="546" y="766" width="120" height="60" as="geometry" />
        </mxCell>
        <mxCell id="WGax3jqfb48JsYN1dhlF-35" value="" style="rounded=0;whiteSpace=wrap;html=1;" parent="1" vertex="1">
          <mxGeometry x="643.0003625488281" y="653.0017175292969" width="120" height="60" as="geometry" />
        </mxCell>
        <mxCell id="WGax3jqfb48JsYN1dhlF-6" value="" style="rounded=0;whiteSpace=wrap;html=1;" parent="1" vertex="1">
          <mxGeometry x="587" y="50" width="120" height="60" as="geometry" />
        </mxCell>
        <mxCell id="WGax3jqfb48JsYN1dhlF-10" style="edgeStyle=orthogonalEdgeStyle;rounded=0;orthogonalLoop=1;jettySize=auto;html=1;exitX=0.75;exitY=1;exitDx=0;exitDy=0;" parent="1" source="WGax3jqfb48JsYN1dhlF-1" target="WGax3jqfb48JsYN1dhlF-11" edge="1">
          <mxGeometry relative="1" as="geometry">
            <mxPoint x="575" y="259" as="targetPoint" />
            <Array as="points">
              <mxPoint x="369" y="190" />
              <mxPoint x="575" y="190" />
            </Array>
          </mxGeometry>
        </mxCell>
        <mxCell id="WGax3jqfb48JsYN1dhlF-1" value="&lt;u&gt;:ControladorAltaUsuario&lt;/u&gt;" style="html=1;" parent="1" vertex="1">
          <mxGeometry x="259" y="62" width="147" height="58" as="geometry" />
        </mxCell>
        <mxCell id="WGax3jqfb48JsYN1dhlF-2" value="" style="html=1;verticalAlign=bottom;endArrow=block;entryX=0;entryY=0.5;entryDx=0;entryDy=0;" parent="1" target="WGax3jqfb48JsYN1dhlF-1" edge="1">
          <mxGeometry width="80" relative="1" as="geometry">
            <mxPoint x="72" y="92" as="sourcePoint" />
            <mxPoint x="152" y="95" as="targetPoint" />
          </mxGeometry>
        </mxCell>
        <mxCell id="WGax3jqfb48JsYN1dhlF-3" value="&amp;nbsp;existe :=&lt;br&gt;ingresarDtUsuario(usuario: DtUsuario): bool" style="text;html=1;strokeColor=none;fillColor=none;align=center;verticalAlign=middle;whiteSpace=wrap;rounded=0;" parent="1" vertex="1">
          <mxGeometry x="35" y="57" width="219" height="20" as="geometry" />
        </mxCell>
        <mxCell id="WGax3jqfb48JsYN1dhlF-4" value="" style="endArrow=classic;html=1;" parent="1" edge="1">
          <mxGeometry width="50" height="50" relative="1" as="geometry">
            <mxPoint x="406" y="92" as="sourcePoint" />
            <mxPoint x="578" y="92" as="targetPoint" />
          </mxGeometry>
        </mxCell>
        <mxCell id="WGax3jqfb48JsYN1dhlF-5" value=":Usuario" style="rounded=0;whiteSpace=wrap;html=1;" parent="1" vertex="1">
          <mxGeometry x="577" y="60" width="120" height="60" as="geometry" />
        </mxCell>
        <mxCell id="WGax3jqfb48JsYN1dhlF-7" value="u := next()" style="text;html=1;strokeColor=none;fillColor=none;align=center;verticalAlign=middle;whiteSpace=wrap;rounded=0;" parent="1" vertex="1">
          <mxGeometry x="491" y="70" width="82" height="20" as="geometry" />
        </mxCell>
        <mxCell id="WGax3jqfb48JsYN1dhlF-8" value="1*: [foreach]" style="text;html=1;strokeColor=none;fillColor=none;align=center;verticalAlign=middle;whiteSpace=wrap;rounded=0;" parent="1" vertex="1">
          <mxGeometry x="398" y="70" width="99" height="20" as="geometry" />
        </mxCell>
        <mxCell id="WGax3jqfb48JsYN1dhlF-9" value="&amp;lt;&amp;lt;global&amp;gt;&amp;gt;" style="text;html=1;strokeColor=none;fillColor=none;align=center;verticalAlign=middle;whiteSpace=wrap;rounded=0;" parent="1" vertex="1">
          <mxGeometry x="523" y="100" width="40" height="20" as="geometry" />
        </mxCell>
        <mxCell id="WGax3jqfb48JsYN1dhlF-11" value="&lt;u&gt;u: Usuario&lt;/u&gt;" style="rounded=0;whiteSpace=wrap;html=1;" parent="1" vertex="1">
          <mxGeometry x="613" y="160" width="120" height="60" as="geometry" />
        </mxCell>
        <mxCell id="WGax3jqfb48JsYN1dhlF-12" value="2*:" style="text;html=1;strokeColor=none;fillColor=none;align=center;verticalAlign=middle;whiteSpace=wrap;rounded=0;" parent="1" vertex="1">
          <mxGeometry x="376" y="126" width="16" height="20" as="geometry" />
        </mxCell>
        <mxCell id="WGax3jqfb48JsYN1dhlF-13" value="existe := existeUsuario(usuario): bool" style="text;html=1;strokeColor=none;fillColor=none;align=center;verticalAlign=middle;whiteSpace=wrap;rounded=0;" parent="1" vertex="1">
          <mxGeometry x="406" y="163" width="184" height="20" as="geometry" />
        </mxCell>
        <mxCell id="WGax3jqfb48JsYN1dhlF-14" style="edgeStyle=orthogonalEdgeStyle;rounded=0;orthogonalLoop=1;jettySize=auto;html=1;exitX=1;exitY=0;exitDx=0;exitDy=0;entryX=0.844;entryY=0.985;entryDx=0;entryDy=0;entryPerimeter=0;" parent="1" source="WGax3jqfb48JsYN1dhlF-11" target="WGax3jqfb48JsYN1dhlF-11" edge="1">
          <mxGeometry relative="1" as="geometry">
            <Array as="points">
              <mxPoint x="714" y="160" />
              <mxPoint x="714" y="140" />
              <mxPoint x="753" y="140" />
              <mxPoint x="753" y="240" />
              <mxPoint x="714" y="240" />
            </Array>
          </mxGeometry>
        </mxCell>
        <mxCell id="WGax3jqfb48JsYN1dhlF-15" value="2*.1: n := getNick(): string&lt;br&gt;2*.2: c := getCorreo(): string" style="text;html=1;strokeColor=none;fillColor=none;align=left;verticalAlign=middle;whiteSpace=wrap;rounded=0;" parent="1" vertex="1">
          <mxGeometry x="765" y="146" width="156" height="74" as="geometry" />
        </mxCell>
        <mxCell id="WGax3jqfb48JsYN1dhlF-18" value="&amp;lt;&amp;lt;local&amp;gt;&amp;gt;" style="text;html=1;strokeColor=none;fillColor=none;align=center;verticalAlign=middle;whiteSpace=wrap;rounded=0;" parent="1" vertex="1">
          <mxGeometry x="560" y="197" width="40" height="20" as="geometry" />
        </mxCell>
        <mxCell id="WGax3jqfb48JsYN1dhlF-19" value="" style="endArrow=none;dashed=1;html=1;dashPattern=1 3;strokeWidth=2;exitX=0.25;exitY=1;exitDx=0;exitDy=0;" parent="1" source="WGax3jqfb48JsYN1dhlF-11" target="WGax3jqfb48JsYN1dhlF-20" edge="1">
          <mxGeometry width="50" height="50" relative="1" as="geometry">
            <mxPoint x="611" y="298" as="sourcePoint" />
            <mxPoint x="643" y="220" as="targetPoint" />
          </mxGeometry>
        </mxCell>
        <mxCell id="WGax3jqfb48JsYN1dhlF-20" value="return: usuario.nick == n || usuario.correo == c" style="shape=note;whiteSpace=wrap;html=1;backgroundOutline=1;darkOpacity=0.05;size=9;" parent="1" vertex="1">
          <mxGeometry x="810" y="248" width="161" height="109" as="geometry" />
        </mxCell>
        <mxCell id="WGax3jqfb48JsYN1dhlF-31" style="edgeStyle=orthogonalEdgeStyle;rounded=0;orthogonalLoop=1;jettySize=auto;html=1;exitX=0.75;exitY=1;exitDx=0;exitDy=0;" parent="1" source="WGax3jqfb48JsYN1dhlF-21" target="WGax3jqfb48JsYN1dhlF-32" edge="1">
          <mxGeometry relative="1" as="geometry">
            <mxPoint x="628.3403625488281" y="662.7917175292969" as="targetPoint" />
            <Array as="points">
              <mxPoint x="385" y="675" />
            </Array>
          </mxGeometry>
        </mxCell>
        <mxCell id="WGax3jqfb48JsYN1dhlF-21" value="&lt;u&gt;:ControladorAltaUsuario&lt;/u&gt;" style="rounded=0;whiteSpace=wrap;html=1;" parent="1" vertex="1">
          <mxGeometry x="266.5" y="496" width="158" height="60" as="geometry" />
        </mxCell>
        <mxCell id="WGax3jqfb48JsYN1dhlF-22" value="" style="endArrow=classic;html=1;" parent="1" edge="1">
          <mxGeometry width="50" height="50" relative="1" as="geometry">
            <mxPoint x="51" y="523" as="sourcePoint" />
            <mxPoint x="267" y="523" as="targetPoint" />
          </mxGeometry>
        </mxCell>
        <mxCell id="WGax3jqfb48JsYN1dhlF-24" value="confirmarAltaUsuario()" style="text;html=1;strokeColor=none;fillColor=none;align=center;verticalAlign=middle;whiteSpace=wrap;rounded=0;" parent="1" vertex="1">
          <mxGeometry x="135" y="496" width="40" height="20" as="geometry" />
        </mxCell>
        <mxCell id="WGax3jqfb48JsYN1dhlF-25" value="" style="endArrow=classic;html=1;" parent="1" edge="1">
          <mxGeometry width="50" height="50" relative="1" as="geometry">
            <mxPoint x="424.5" y="527" as="sourcePoint" />
            <mxPoint x="645" y="527" as="targetPoint" />
          </mxGeometry>
        </mxCell>
        <mxCell id="WGax3jqfb48JsYN1dhlF-26" value="1:" style="text;html=1;strokeColor=none;fillColor=none;align=center;verticalAlign=middle;whiteSpace=wrap;rounded=0;" parent="1" vertex="1">
          <mxGeometry x="424.5" y="499" width="40" height="20" as="geometry" />
        </mxCell>
        <mxCell id="WGax3jqfb48JsYN1dhlF-27" value="u := create(usuario)" style="text;html=1;strokeColor=none;fillColor=none;align=center;verticalAlign=middle;whiteSpace=wrap;rounded=0;" parent="1" vertex="1">
          <mxGeometry x="516" y="499" width="40" height="20" as="geometry" />
        </mxCell>
        <mxCell id="WGax3jqfb48JsYN1dhlF-28" value="" style="endArrow=none;dashed=1;html=1;dashPattern=1 3;strokeWidth=2;exitX=0.25;exitY=1;exitDx=0;exitDy=0;" parent="1" source="WGax3jqfb48JsYN1dhlF-1" target="WGax3jqfb48JsYN1dhlF-29" edge="1">
          <mxGeometry width="50" height="50" relative="1" as="geometry">
            <mxPoint x="258.5" y="168" as="sourcePoint" />
            <mxPoint x="308.5" y="118" as="targetPoint" />
          </mxGeometry>
        </mxCell>
        <mxCell id="WGax3jqfb48JsYN1dhlF-29" value="El sistema recuerda usuario." style="shape=note;whiteSpace=wrap;html=1;backgroundOutline=1;darkOpacity=0.05;size=15;" parent="1" vertex="1">
          <mxGeometry x="189" y="172" width="80" height="100" as="geometry" />
        </mxCell>
        <mxCell id="WGax3jqfb48JsYN1dhlF-30" value="&lt;u&gt;:Usuario&lt;/u&gt;" style="rounded=0;whiteSpace=wrap;html=1;" parent="1" vertex="1">
          <mxGeometry x="643" y="496" width="120" height="60" as="geometry" />
        </mxCell>
        <mxCell id="WGax3jqfb48JsYN1dhlF-32" value="&lt;u&gt;:Usuario&lt;/u&gt;" style="rounded=0;whiteSpace=wrap;html=1;" parent="1" vertex="1">
          <mxGeometry x="632.0003625488281" y="666.0017175292969" width="120" height="60" as="geometry" />
        </mxCell>
        <mxCell id="WGax3jqfb48JsYN1dhlF-33" value="2:" style="text;html=1;align=center;verticalAlign=middle;resizable=0;points=[];autosize=1;" parent="1" vertex="1">
          <mxGeometry x="392" y="564" width="20" height="17" as="geometry" />
        </mxCell>
        <mxCell id="WGax3jqfb48JsYN1dhlF-34" value="add(u)" style="text;html=1;align=center;verticalAlign=middle;resizable=0;points=[];autosize=1;" parent="1" vertex="1">
          <mxGeometry x="493" y="649" width="44" height="17" as="geometry" />
        </mxCell>
        <mxCell id="WGax3jqfb48JsYN1dhlF-37" value="&amp;lt;&amp;lt;local&amp;gt;&amp;gt;" style="text;html=1;align=center;verticalAlign=middle;resizable=0;points=[];autosize=1;" parent="1" vertex="1">
          <mxGeometry x="570" y="534" width="62" height="17" as="geometry" />
        </mxCell>
        <mxCell id="WGax3jqfb48JsYN1dhlF-38" value="&amp;lt;&amp;lt;global&amp;gt;&amp;gt;" style="text;html=1;align=center;verticalAlign=middle;resizable=0;points=[];autosize=1;" parent="1" vertex="1">
          <mxGeometry x="556" y="682" width="70" height="17" as="geometry" />
        </mxCell>
        <mxCell id="WGax3jqfb48JsYN1dhlF-47" style="edgeStyle=orthogonalEdgeStyle;rounded=1;orthogonalLoop=1;jettySize=auto;html=1;exitX=1;exitY=0.5;exitDx=0;exitDy=0;" parent="1" source="WGax3jqfb48JsYN1dhlF-40" target="WGax3jqfb48JsYN1dhlF-48" edge="1">
          <mxGeometry relative="1" as="geometry">
            <mxPoint x="508" y="804" as="targetPoint" />
          </mxGeometry>
        </mxCell>
        <mxCell id="WGax3jqfb48JsYN1dhlF-40" value="&lt;u&gt;:Docente&lt;/u&gt;" style="rounded=0;whiteSpace=wrap;html=1;" parent="1" vertex="1">
          <mxGeometry x="226" y="774" width="120" height="60" as="geometry" />
        </mxCell>
        <mxCell id="WGax3jqfb48JsYN1dhlF-41" value="&lt;u&gt;:Estudiante&lt;/u&gt;" style="rounded=0;whiteSpace=wrap;html=1;" parent="1" vertex="1">
          <mxGeometry x="221" y="973" width="120" height="60" as="geometry" />
        </mxCell>
        <mxCell id="WGax3jqfb48JsYN1dhlF-42" value="" style="endArrow=classic;html=1;" parent="1" edge="1">
          <mxGeometry width="50" height="50" relative="1" as="geometry">
            <mxPoint x="73" y="802" as="sourcePoint" />
            <mxPoint x="226" y="802" as="targetPoint" />
          </mxGeometry>
        </mxCell>
        <mxCell id="WGax3jqfb48JsYN1dhlF-43" value="u := create(usuario)" style="text;html=1;strokeColor=none;fillColor=none;align=center;verticalAlign=middle;whiteSpace=wrap;rounded=0;" parent="1" vertex="1">
          <mxGeometry x="125" y="774" width="40" height="20" as="geometry" />
        </mxCell>
        <mxCell id="WGax3jqfb48JsYN1dhlF-44" value="" style="endArrow=classic;html=1;" parent="1" edge="1">
          <mxGeometry width="50" height="50" relative="1" as="geometry">
            <mxPoint x="69" y="999" as="sourcePoint" />
            <mxPoint x="221" y="999" as="targetPoint" />
          </mxGeometry>
        </mxCell>
        <mxCell id="WGax3jqfb48JsYN1dhlF-46" value="u := create(usuario)" style="text;html=1;strokeColor=none;fillColor=none;align=center;verticalAlign=middle;whiteSpace=wrap;rounded=0;" parent="1" vertex="1">
          <mxGeometry x="120" y="969" width="40" height="20" as="geometry" />
        </mxCell>
        <mxCell id="WGax3jqfb48JsYN1dhlF-48" value="&lt;u&gt;:Instituto&lt;/u&gt;" style="rounded=0;whiteSpace=wrap;html=1;" parent="1" vertex="1">
          <mxGeometry x="537" y="774" width="120" height="60" as="geometry" />
        </mxCell>
        <mxCell id="WGax3jqfb48JsYN1dhlF-50" value="1.1:" style="text;html=1;align=center;verticalAlign=middle;resizable=0;points=[];autosize=1;" parent="1" vertex="1">
          <mxGeometry x="346" y="779" width="30" height="17" as="geometry" />
        </mxCell>
        <mxCell id="WGax3jqfb48JsYN1dhlF-51" value="i := find(usuario.instituto)" style="text;html=1;align=center;verticalAlign=middle;resizable=0;points=[];autosize=1;" parent="1" vertex="1">
          <mxGeometry x="375" y="779" width="141" height="17" as="geometry" />
        </mxCell>
        <mxCell id="WGax3jqfb48JsYN1dhlF-52" value="&amp;lt;&amp;lt;global&amp;gt;&amp;gt;" style="text;html=1;align=center;verticalAlign=middle;resizable=0;points=[];autosize=1;" parent="1" vertex="1">
          <mxGeometry x="463" y="810" width="70" height="17" as="geometry" />
        </mxCell>
        <mxCell id="WGax3jqfb48JsYN1dhlF-53" style="edgeStyle=orthogonalEdgeStyle;rounded=0;orthogonalLoop=1;jettySize=auto;html=1;exitX=0.75;exitY=1;exitDx=0;exitDy=0;entryX=0.25;entryY=1;entryDx=0;entryDy=0;" parent="1" source="WGax3jqfb48JsYN1dhlF-40" target="WGax3jqfb48JsYN1dhlF-40" edge="1">
          <mxGeometry relative="1" as="geometry">
            <Array as="points">
              <mxPoint x="316" y="889" />
              <mxPoint x="256" y="889" />
            </Array>
          </mxGeometry>
        </mxCell>
        <mxCell id="WGax3jqfb48JsYN1dhlF-54" value="setInstituto(i)" style="text;html=1;align=center;verticalAlign=middle;resizable=0;points=[];autosize=1;" parent="1" vertex="1">
          <mxGeometry x="246.5" y="894" width="79" height="17" as="geometry" />
        </mxCell>
        <mxCell id="WGax3jqfb48JsYN1dhlF-55" value="1.2:" style="text;html=1;align=center;verticalAlign=middle;resizable=0;points=[];autosize=1;" parent="1" vertex="1">
          <mxGeometry x="316" y="836" width="30" height="17" as="geometry" />
        </mxCell>
        <mxCell id="WGax3jqfb48JsYN1dhlF-56" value="&lt;u&gt;:ControladorAltaUsuario&lt;/u&gt;" style="rounded=0;whiteSpace=wrap;html=1;" parent="1" vertex="1">
          <mxGeometry x="1213" y="519" width="162" height="60" as="geometry" />
        </mxCell>
        <mxCell id="WGax3jqfb48JsYN1dhlF-57" value="" style="endArrow=none;dashed=1;html=1;dashPattern=1 3;strokeWidth=2;exitX=0.25;exitY=1;exitDx=0;exitDy=0;entryX=0;entryY=0;entryDx=65;entryDy=15;entryPerimeter=0;" parent="1" source="WGax3jqfb48JsYN1dhlF-21" target="WGax3jqfb48JsYN1dhlF-58" edge="1">
          <mxGeometry width="50" height="50" relative="1" as="geometry">
            <mxPoint x="275.5" y="606" as="sourcePoint" />
            <mxPoint x="325.5" y="556" as="targetPoint" />
          </mxGeometry>
        </mxCell>
        <mxCell id="WGax3jqfb48JsYN1dhlF-58" value="El sistema libera la memoria." style="shape=note;whiteSpace=wrap;html=1;backgroundOutline=1;darkOpacity=0.05;size=17;" parent="1" vertex="1">
          <mxGeometry x="211.99999999999977" y="599" width="80" height="100" as="geometry" />
        </mxCell>
        <mxCell id="WGax3jqfb48JsYN1dhlF-59" value="" style="endArrow=classic;html=1;" parent="1" edge="1">
          <mxGeometry width="50" height="50" relative="1" as="geometry">
            <mxPoint x="1033" y="548" as="sourcePoint" />
            <mxPoint x="1213" y="548" as="targetPoint" />
          </mxGeometry>
        </mxCell>
        <mxCell id="WGax3jqfb48JsYN1dhlF-60" value="cancelarAltaUsuario()" style="text;html=1;align=center;verticalAlign=middle;resizable=0;points=[];autosize=1;" parent="1" vertex="1">
          <mxGeometry x="1053" y="525" width="126" height="17" as="geometry" />
        </mxCell>
        <mxCell id="WGax3jqfb48JsYN1dhlF-62" style="edgeStyle=orthogonalEdgeStyle;rounded=0;orthogonalLoop=1;jettySize=auto;html=1;exitX=0.5;exitY=0;exitDx=0;exitDy=0;exitPerimeter=0;entryX=0.25;entryY=1;entryDx=0;entryDy=0;dashed=1;endArrow=none;endFill=0;" parent="1" source="WGax3jqfb48JsYN1dhlF-61" target="WGax3jqfb48JsYN1dhlF-56" edge="1">
          <mxGeometry relative="1" as="geometry" />
        </mxCell>
        <mxCell id="WGax3jqfb48JsYN1dhlF-61" value="El sistema libera la memoria." style="shape=note;whiteSpace=wrap;html=1;backgroundOutline=1;darkOpacity=0.05;size=17;" parent="1" vertex="1">
          <mxGeometry x="1181.9999999999998" y="646" width="80" height="100" as="geometry" />
        </mxCell>
        <mxCell id="WGax3jqfb48JsYN1dhlF-72" value="" style="rounded=0;whiteSpace=wrap;html=1;" parent="1" vertex="1">
          <mxGeometry x="587" y="1218" width="120" height="60" as="geometry" />
        </mxCell>
        <mxCell id="WGax3jqfb48JsYN1dhlF-73" style="edgeStyle=orthogonalEdgeStyle;rounded=0;orthogonalLoop=1;jettySize=auto;html=1;exitX=0.75;exitY=1;exitDx=0;exitDy=0;" parent="1" source="WGax3jqfb48JsYN1dhlF-74" target="WGax3jqfb48JsYN1dhlF-82" edge="1">
          <mxGeometry relative="1" as="geometry">
            <mxPoint x="575" y="1427" as="targetPoint" />
            <Array as="points">
              <mxPoint x="369" y="1358" />
              <mxPoint x="575" y="1358" />
            </Array>
          </mxGeometry>
        </mxCell>
        <mxCell id="WGax3jqfb48JsYN1dhlF-74" value="&lt;u&gt;:ControladorAltaCurso&lt;/u&gt;" style="html=1;" parent="1" vertex="1">
          <mxGeometry x="259" y="1230" width="147" height="58" as="geometry" />
        </mxCell>
        <mxCell id="WGax3jqfb48JsYN1dhlF-75" value="" style="html=1;verticalAlign=bottom;endArrow=block;entryX=0;entryY=0.5;entryDx=0;entryDy=0;" parent="1" target="WGax3jqfb48JsYN1dhlF-74" edge="1">
          <mxGeometry width="80" relative="1" as="geometry">
            <mxPoint x="72" y="1260" as="sourcePoint" />
            <mxPoint x="152" y="1263" as="targetPoint" />
          </mxGeometry>
        </mxCell>
        <mxCell id="WGax3jqfb48JsYN1dhlF-76" value="&amp;nbsp;existe :=&lt;br&gt;ingresarCurso(instituto: string, curso: DtCurso): bool" style="text;html=1;strokeColor=none;fillColor=none;align=center;verticalAlign=middle;whiteSpace=wrap;rounded=0;" parent="1" vertex="1">
          <mxGeometry x="35" y="1225" width="219" height="20" as="geometry" />
        </mxCell>
        <mxCell id="WGax3jqfb48JsYN1dhlF-77" value="" style="endArrow=classic;html=1;" parent="1" edge="1">
          <mxGeometry width="50" height="50" relative="1" as="geometry">
            <mxPoint x="406" y="1260" as="sourcePoint" />
            <mxPoint x="578" y="1260" as="targetPoint" />
          </mxGeometry>
        </mxCell>
        <mxCell id="WGax3jqfb48JsYN1dhlF-78" value="&lt;u&gt;:Curso&lt;/u&gt;" style="rounded=0;whiteSpace=wrap;html=1;" parent="1" vertex="1">
          <mxGeometry x="577" y="1228" width="120" height="60" as="geometry" />
        </mxCell>
        <mxCell id="WGax3jqfb48JsYN1dhlF-79" value="c := next()" style="text;html=1;strokeColor=none;fillColor=none;align=center;verticalAlign=middle;whiteSpace=wrap;rounded=0;" parent="1" vertex="1">
          <mxGeometry x="491" y="1238" width="82" height="20" as="geometry" />
        </mxCell>
        <mxCell id="WGax3jqfb48JsYN1dhlF-80" value="1*: [foreach]" style="text;html=1;strokeColor=none;fillColor=none;align=center;verticalAlign=middle;whiteSpace=wrap;rounded=0;" parent="1" vertex="1">
          <mxGeometry x="398" y="1238" width="99" height="20" as="geometry" />
        </mxCell>
        <mxCell id="WGax3jqfb48JsYN1dhlF-81" value="&amp;lt;&amp;lt;global&amp;gt;&amp;gt;" style="text;html=1;strokeColor=none;fillColor=none;align=center;verticalAlign=middle;whiteSpace=wrap;rounded=0;" parent="1" vertex="1">
          <mxGeometry x="523" y="1268" width="40" height="20" as="geometry" />
        </mxCell>
        <mxCell id="WGax3jqfb48JsYN1dhlF-82" value="&lt;u&gt;c: Curso&lt;/u&gt;" style="rounded=0;whiteSpace=wrap;html=1;" parent="1" vertex="1">
          <mxGeometry x="613" y="1328" width="120" height="60" as="geometry" />
        </mxCell>
        <mxCell id="WGax3jqfb48JsYN1dhlF-83" value="2*:" style="text;html=1;strokeColor=none;fillColor=none;align=center;verticalAlign=middle;whiteSpace=wrap;rounded=0;" parent="1" vertex="1">
          <mxGeometry x="376" y="1294" width="16" height="20" as="geometry" />
        </mxCell>
        <mxCell id="WGax3jqfb48JsYN1dhlF-84" value="existe := existeCurso(curso): bool" style="text;html=1;strokeColor=none;fillColor=none;align=center;verticalAlign=middle;whiteSpace=wrap;rounded=0;" parent="1" vertex="1">
          <mxGeometry x="406" y="1331" width="184" height="20" as="geometry" />
        </mxCell>
        <mxCell id="WGax3jqfb48JsYN1dhlF-85" style="edgeStyle=orthogonalEdgeStyle;rounded=0;orthogonalLoop=1;jettySize=auto;html=1;exitX=1;exitY=0;exitDx=0;exitDy=0;entryX=0.844;entryY=0.985;entryDx=0;entryDy=0;entryPerimeter=0;" parent="1" source="WGax3jqfb48JsYN1dhlF-82" target="WGax3jqfb48JsYN1dhlF-82" edge="1">
          <mxGeometry relative="1" as="geometry">
            <Array as="points">
              <mxPoint x="714" y="1328" />
              <mxPoint x="714" y="1308" />
              <mxPoint x="753" y="1308" />
              <mxPoint x="753" y="1408" />
              <mxPoint x="714" y="1408" />
            </Array>
          </mxGeometry>
        </mxCell>
        <mxCell id="WGax3jqfb48JsYN1dhlF-86" value="2*.1: c := getnombre(): string&lt;br&gt;&amp;nbsp; &amp;nbsp;&amp;nbsp;" style="text;html=1;strokeColor=none;fillColor=none;align=center;verticalAlign=middle;whiteSpace=wrap;rounded=0;" parent="1" vertex="1">
          <mxGeometry x="763" y="1317" width="156" height="74" as="geometry" />
        </mxCell>
        <mxCell id="WGax3jqfb48JsYN1dhlF-87" value="&amp;lt;&amp;lt;local&amp;gt;&amp;gt;" style="text;html=1;strokeColor=none;fillColor=none;align=center;verticalAlign=middle;whiteSpace=wrap;rounded=0;" parent="1" vertex="1">
          <mxGeometry x="560" y="1365" width="40" height="20" as="geometry" />
        </mxCell>
        <mxCell id="WGax3jqfb48JsYN1dhlF-88" value="" style="endArrow=none;dashed=1;html=1;dashPattern=1 3;strokeWidth=2;exitX=0.25;exitY=1;exitDx=0;exitDy=0;" parent="1" source="WGax3jqfb48JsYN1dhlF-82" target="WGax3jqfb48JsYN1dhlF-89" edge="1">
          <mxGeometry width="50" height="50" relative="1" as="geometry">
            <mxPoint x="611" y="1466" as="sourcePoint" />
            <mxPoint x="643" y="1388" as="targetPoint" />
          </mxGeometry>
        </mxCell>
        <mxCell id="WGax3jqfb48JsYN1dhlF-89" value="return: curso.nombre == c" style="shape=note;whiteSpace=wrap;html=1;backgroundOutline=1;darkOpacity=0.05;size=9;" parent="1" vertex="1">
          <mxGeometry x="758" y="1432" width="161" height="109" as="geometry" />
        </mxCell>
        <mxCell id="WGax3jqfb48JsYN1dhlF-90" value="" style="endArrow=none;dashed=1;html=1;dashPattern=1 3;strokeWidth=2;exitX=0.25;exitY=1;exitDx=0;exitDy=0;" parent="1" source="WGax3jqfb48JsYN1dhlF-74" target="WGax3jqfb48JsYN1dhlF-91" edge="1">
          <mxGeometry width="50" height="50" relative="1" as="geometry">
            <mxPoint x="258.5" y="1336" as="sourcePoint" />
            <mxPoint x="308.5" y="1286" as="targetPoint" />
          </mxGeometry>
        </mxCell>
        <mxCell id="WGax3jqfb48JsYN1dhlF-91" value="El sistema recuerda curso e instituto." style="shape=note;whiteSpace=wrap;html=1;backgroundOutline=1;darkOpacity=0.05;size=15;" parent="1" vertex="1">
          <mxGeometry x="189" y="1340" width="80" height="100" as="geometry" />
        </mxCell>
        <mxCell id="WGax3jqfb48JsYN1dhlF-92" value="" style="rounded=0;whiteSpace=wrap;html=1;" parent="1" vertex="1">
          <mxGeometry x="641.0003625488281" y="1779.001717529297" width="120" height="60" as="geometry" />
        </mxCell>
        <mxCell id="WGax3jqfb48JsYN1dhlF-93" style="edgeStyle=orthogonalEdgeStyle;rounded=0;orthogonalLoop=1;jettySize=auto;html=1;exitX=0.75;exitY=1;exitDx=0;exitDy=0;" parent="1" source="WGax3jqfb48JsYN1dhlF-94" target="WGax3jqfb48JsYN1dhlF-101" edge="1">
          <mxGeometry relative="1" as="geometry">
            <mxPoint x="626.3403625488281" y="1795.7917175292969" as="targetPoint" />
            <Array as="points">
              <mxPoint x="383" y="1808" />
            </Array>
          </mxGeometry>
        </mxCell>
        <mxCell id="WGax3jqfb48JsYN1dhlF-94" value="&lt;u&gt;:ControladorAltaCurso&lt;/u&gt;" style="rounded=0;whiteSpace=wrap;html=1;" parent="1" vertex="1">
          <mxGeometry x="264.5" y="1629" width="158" height="60" as="geometry" />
        </mxCell>
        <mxCell id="WGax3jqfb48JsYN1dhlF-95" value="" style="endArrow=classic;html=1;" parent="1" edge="1">
          <mxGeometry width="50" height="50" relative="1" as="geometry">
            <mxPoint x="49" y="1656" as="sourcePoint" />
            <mxPoint x="265" y="1656" as="targetPoint" />
          </mxGeometry>
        </mxCell>
        <mxCell id="WGax3jqfb48JsYN1dhlF-96" value="confirmarAltaCurso()" style="text;html=1;strokeColor=none;fillColor=none;align=center;verticalAlign=middle;whiteSpace=wrap;rounded=0;" parent="1" vertex="1">
          <mxGeometry x="133" y="1629" width="40" height="20" as="geometry" />
        </mxCell>
        <mxCell id="WGax3jqfb48JsYN1dhlF-97" value="" style="endArrow=classic;html=1;" parent="1" edge="1">
          <mxGeometry width="50" height="50" relative="1" as="geometry">
            <mxPoint x="422.5" y="1660" as="sourcePoint" />
            <mxPoint x="643" y="1660" as="targetPoint" />
          </mxGeometry>
        </mxCell>
        <mxCell id="WGax3jqfb48JsYN1dhlF-98" value="1:" style="text;html=1;strokeColor=none;fillColor=none;align=center;verticalAlign=middle;whiteSpace=wrap;rounded=0;" parent="1" vertex="1">
          <mxGeometry x="422.5" y="1632" width="40" height="20" as="geometry" />
        </mxCell>
        <mxCell id="WGax3jqfb48JsYN1dhlF-99" value="c := create(curso, instituto)" style="text;html=1;strokeColor=none;fillColor=none;align=center;verticalAlign=middle;whiteSpace=wrap;rounded=0;" parent="1" vertex="1">
          <mxGeometry x="472" y="1635" width="135" height="20" as="geometry" />
        </mxCell>
        <mxCell id="WGax3jqfb48JsYN1dhlF-117" style="edgeStyle=orthogonalEdgeStyle;rounded=0;orthogonalLoop=1;jettySize=auto;html=1;exitX=1;exitY=0.5;exitDx=0;exitDy=0;endArrow=classic;endFill=1;" parent="1" source="WGax3jqfb48JsYN1dhlF-100" edge="1">
          <mxGeometry relative="1" as="geometry">
            <mxPoint x="944.7848205566406" y="1659" as="targetPoint" />
          </mxGeometry>
        </mxCell>
        <mxCell id="WGax3jqfb48JsYN1dhlF-123" style="edgeStyle=orthogonalEdgeStyle;rounded=0;orthogonalLoop=1;jettySize=auto;html=1;exitX=0.75;exitY=1;exitDx=0;exitDy=0;endArrow=classic;endFill=1;" parent="1" source="WGax3jqfb48JsYN1dhlF-100" target="WGax3jqfb48JsYN1dhlF-124" edge="1">
          <mxGeometry relative="1" as="geometry">
            <mxPoint x="967.0069274902344" y="1786.7917175292969" as="targetPoint" />
            <Array as="points">
              <mxPoint x="731" y="1760" />
              <mxPoint x="959" y="1760" />
              <mxPoint x="959" y="1785" />
            </Array>
          </mxGeometry>
        </mxCell>
        <mxCell id="WGax3jqfb48JsYN1dhlF-100" value="&lt;u&gt;:Curso&lt;/u&gt;" style="rounded=0;whiteSpace=wrap;html=1;" parent="1" vertex="1">
          <mxGeometry x="641" y="1629" width="120" height="60" as="geometry" />
        </mxCell>
        <mxCell id="WGax3jqfb48JsYN1dhlF-101" value="&lt;u&gt;:Curso&lt;/u&gt;" style="rounded=0;whiteSpace=wrap;html=1;" parent="1" vertex="1">
          <mxGeometry x="630.0003625488281" y="1792.001717529297" width="120" height="60" as="geometry" />
        </mxCell>
        <mxCell id="WGax3jqfb48JsYN1dhlF-102" value="2:" style="text;html=1;align=center;verticalAlign=middle;resizable=0;points=[];autosize=1;" parent="1" vertex="1">
          <mxGeometry x="390" y="1697" width="20" height="17" as="geometry" />
        </mxCell>
        <mxCell id="WGax3jqfb48JsYN1dhlF-103" value="add(c)" style="text;html=1;align=center;verticalAlign=middle;resizable=0;points=[];autosize=1;" parent="1" vertex="1">
          <mxGeometry x="491" y="1775" width="44" height="17" as="geometry" />
        </mxCell>
        <mxCell id="WGax3jqfb48JsYN1dhlF-104" value="&amp;lt;&amp;lt;local&amp;gt;&amp;gt;" style="text;html=1;align=center;verticalAlign=middle;resizable=0;points=[];autosize=1;" parent="1" vertex="1">
          <mxGeometry x="568" y="1667" width="62" height="17" as="geometry" />
        </mxCell>
        <mxCell id="WGax3jqfb48JsYN1dhlF-105" value="&amp;lt;&amp;lt;global&amp;gt;&amp;gt;" style="text;html=1;align=center;verticalAlign=middle;resizable=0;points=[];autosize=1;" parent="1" vertex="1">
          <mxGeometry x="554" y="1808" width="70" height="17" as="geometry" />
        </mxCell>
        <mxCell id="WGax3jqfb48JsYN1dhlF-106" value="" style="endArrow=none;dashed=1;html=1;dashPattern=1 3;strokeWidth=2;exitX=0.25;exitY=1;exitDx=0;exitDy=0;entryX=0;entryY=0;entryDx=65;entryDy=15;entryPerimeter=0;" parent="1" source="WGax3jqfb48JsYN1dhlF-94" target="WGax3jqfb48JsYN1dhlF-107" edge="1">
          <mxGeometry width="50" height="50" relative="1" as="geometry">
            <mxPoint x="273.5" y="1739" as="sourcePoint" />
            <mxPoint x="323.5" y="1689" as="targetPoint" />
          </mxGeometry>
        </mxCell>
        <mxCell id="WGax3jqfb48JsYN1dhlF-107" value="El sistema libera la memoria." style="shape=note;whiteSpace=wrap;html=1;backgroundOutline=1;darkOpacity=0.05;size=17;" parent="1" vertex="1">
          <mxGeometry x="209.99999999999977" y="1732" width="80" height="100" as="geometry" />
        </mxCell>
        <mxCell id="WGax3jqfb48JsYN1dhlF-109" value="&lt;u&gt;:ControladorAltaCurso&lt;/u&gt;" style="rounded=0;whiteSpace=wrap;html=1;" parent="1" vertex="1">
          <mxGeometry x="236" y="1964" width="162" height="60" as="geometry" />
        </mxCell>
        <mxCell id="WGax3jqfb48JsYN1dhlF-110" value="" style="endArrow=classic;html=1;" parent="1" edge="1">
          <mxGeometry width="50" height="50" relative="1" as="geometry">
            <mxPoint x="56" y="1993" as="sourcePoint" />
            <mxPoint x="236" y="1993" as="targetPoint" />
          </mxGeometry>
        </mxCell>
        <mxCell id="WGax3jqfb48JsYN1dhlF-111" value="cancelarAltaCurso()" style="text;html=1;align=center;verticalAlign=middle;resizable=0;points=[];autosize=1;" parent="1" vertex="1">
          <mxGeometry x="81" y="1970" width="116" height="17" as="geometry" />
        </mxCell>
        <mxCell id="WGax3jqfb48JsYN1dhlF-112" style="edgeStyle=orthogonalEdgeStyle;rounded=0;orthogonalLoop=1;jettySize=auto;html=1;exitX=0.5;exitY=0;exitDx=0;exitDy=0;exitPerimeter=0;entryX=0.25;entryY=1;entryDx=0;entryDy=0;dashed=1;endArrow=none;endFill=0;" parent="1" source="WGax3jqfb48JsYN1dhlF-113" target="WGax3jqfb48JsYN1dhlF-109" edge="1">
          <mxGeometry relative="1" as="geometry" />
        </mxCell>
        <mxCell id="WGax3jqfb48JsYN1dhlF-113" value="El sistema libera la memoria." style="shape=note;whiteSpace=wrap;html=1;backgroundOutline=1;darkOpacity=0.05;size=17;" parent="1" vertex="1">
          <mxGeometry x="204.99999999999977" y="2091" width="80" height="100" as="geometry" />
        </mxCell>
        <mxCell id="WGax3jqfb48JsYN1dhlF-132" style="edgeStyle=orthogonalEdgeStyle;rounded=0;orthogonalLoop=1;jettySize=auto;html=1;exitX=1;exitY=0.5;exitDx=0;exitDy=0;endArrow=classic;endFill=1;" parent="1" source="WGax3jqfb48JsYN1dhlF-114" target="WGax3jqfb48JsYN1dhlF-133" edge="1">
          <mxGeometry relative="1" as="geometry">
            <mxPoint x="729.1540171305339" y="2487.8333333333335" as="targetPoint" />
          </mxGeometry>
        </mxCell>
        <mxCell id="WGax3jqfb48JsYN1dhlF-137" style="edgeStyle=orthogonalEdgeStyle;rounded=0;orthogonalLoop=1;jettySize=auto;html=1;exitX=0.75;exitY=1;exitDx=0;exitDy=0;endArrow=classic;endFill=1;" parent="1" source="WGax3jqfb48JsYN1dhlF-114" target="WGax3jqfb48JsYN1dhlF-138" edge="1">
          <mxGeometry relative="1" as="geometry">
            <mxPoint x="764.3392079671225" y="2725.4376271565757" as="targetPoint" />
            <Array as="points">
              <mxPoint x="410" y="2698" />
              <mxPoint x="764" y="2698" />
            </Array>
          </mxGeometry>
        </mxCell>
        <mxCell id="WGax3jqfb48JsYN1dhlF-114" value="&lt;u&gt;:ControladorConsultaDeCurso&lt;/u&gt;" style="rounded=0;whiteSpace=wrap;html=1;" parent="1" vertex="1">
          <mxGeometry x="266.5" y="2458" width="191" height="60" as="geometry" />
        </mxCell>
        <mxCell id="WGax3jqfb48JsYN1dhlF-118" value="&lt;u&gt;:Curso&lt;/u&gt;" style="rounded=0;whiteSpace=wrap;html=1;" parent="1" vertex="1">
          <mxGeometry x="944" y="1629" width="120" height="60" as="geometry" />
        </mxCell>
        <mxCell id="WGax3jqfb48JsYN1dhlF-119" value="1.1*: [forall p in cursos.previas]&amp;nbsp;" style="text;html=1;align=center;verticalAlign=middle;resizable=0;points=[];autosize=1;" parent="1" vertex="1">
          <mxGeometry x="765" y="1667" width="177" height="17" as="geometry" />
        </mxCell>
        <mxCell id="WGax3jqfb48JsYN1dhlF-122" value="cp := find(p)" style="text;html=1;align=center;verticalAlign=middle;resizable=0;points=[];autosize=1;" parent="1" vertex="1">
          <mxGeometry x="813" y="1635" width="73" height="17" as="geometry" />
        </mxCell>
        <mxCell id="WGax3jqfb48JsYN1dhlF-124" value="&lt;u&gt;:Curso&lt;/u&gt;" style="rounded=0;whiteSpace=wrap;html=1;" parent="1" vertex="1">
          <mxGeometry x="990.9969274902344" y="1752.001717529297" width="120" height="60" as="geometry" />
        </mxCell>
        <mxCell id="WGax3jqfb48JsYN1dhlF-125" value="1.2*:" style="text;html=1;align=center;verticalAlign=middle;resizable=0;points=[];autosize=1;" parent="1" vertex="1">
          <mxGeometry x="731" y="1697" width="34" height="17" as="geometry" />
        </mxCell>
        <mxCell id="WGax3jqfb48JsYN1dhlF-126" value="&amp;lt;&amp;lt;global&amp;gt;&amp;gt;" style="text;html=1;align=center;verticalAlign=middle;resizable=0;points=[];autosize=1;" parent="1" vertex="1">
          <mxGeometry x="1022" y="1689" width="70" height="17" as="geometry" />
        </mxCell>
        <mxCell id="WGax3jqfb48JsYN1dhlF-128" value="add(cp)" style="text;html=1;align=center;verticalAlign=middle;resizable=0;points=[];autosize=1;" parent="1" vertex="1">
          <mxGeometry x="821" y="1735" width="51" height="17" as="geometry" />
        </mxCell>
        <mxCell id="WGax3jqfb48JsYN1dhlF-129" value="&amp;lt;&amp;lt;association&amp;gt;&amp;gt;" style="text;html=1;align=center;verticalAlign=middle;resizable=0;points=[];autosize=1;" parent="1" vertex="1">
          <mxGeometry x="982" y="1815" width="98" height="17" as="geometry" />
        </mxCell>
        <mxCell id="WGax3jqfb48JsYN1dhlF-130" value="" style="endArrow=classic;html=1;" parent="1" edge="1">
          <mxGeometry width="50" height="50" relative="1" as="geometry">
            <mxPoint x="56" y="2482" as="sourcePoint" />
            <mxPoint x="264.5" y="2482" as="targetPoint" />
          </mxGeometry>
        </mxCell>
        <mxCell id="WGax3jqfb48JsYN1dhlF-131" value="&amp;nbsp;&lt;br&gt;ingresarInstituto(instituto: string): set(string)" style="text;html=1;strokeColor=none;fillColor=none;align=center;verticalAlign=middle;whiteSpace=wrap;rounded=0;" parent="1" vertex="1">
          <mxGeometry x="16.5" y="2449" width="257" height="20" as="geometry" />
        </mxCell>
        <mxCell id="WGax3jqfb48JsYN1dhlF-133" value="&lt;u&gt;:Instituto&lt;/u&gt;" style="rounded=0;whiteSpace=wrap;html=1;" parent="1" vertex="1">
          <mxGeometry x="707.004017130534" y="2458.0033333333336" width="120" height="60" as="geometry" />
        </mxCell>
        <mxCell id="WGax3jqfb48JsYN1dhlF-135" value="1:" style="text;html=1;align=center;verticalAlign=middle;resizable=0;points=[];autosize=1;" parent="1" vertex="1">
          <mxGeometry x="464.5" y="2452" width="20" height="17" as="geometry" />
        </mxCell>
        <mxCell id="WGax3jqfb48JsYN1dhlF-136" value="i := find(instituto)" style="text;html=1;align=center;verticalAlign=middle;resizable=0;points=[];autosize=1;" parent="1" vertex="1">
          <mxGeometry x="526" y="2464" width="98" height="17" as="geometry" />
        </mxCell>
        <mxCell id="WGax3jqfb48JsYN1dhlF-141" style="edgeStyle=orthogonalEdgeStyle;rounded=0;orthogonalLoop=1;jettySize=auto;html=1;exitX=1;exitY=0.25;exitDx=0;exitDy=0;endArrow=classic;endFill=1;" parent="1" source="WGax3jqfb48JsYN1dhlF-138" target="WGax3jqfb48JsYN1dhlF-142" edge="1">
          <mxGeometry relative="1" as="geometry">
            <mxPoint x="1109.709487915039" y="2678.666666666667" as="targetPoint" />
            <Array as="points">
              <mxPoint x="840" y="2694" />
            </Array>
          </mxGeometry>
        </mxCell>
        <mxCell id="WGax3jqfb48JsYN1dhlF-146" style="edgeStyle=orthogonalEdgeStyle;rounded=0;orthogonalLoop=1;jettySize=auto;html=1;exitX=0.75;exitY=1;exitDx=0;exitDy=0;endArrow=classic;endFill=1;" parent="1" source="WGax3jqfb48JsYN1dhlF-138" target="WGax3jqfb48JsYN1dhlF-147" edge="1">
          <mxGeometry relative="1" as="geometry">
            <mxPoint x="1099.5243479410808" y="2836.548772176107" as="targetPoint" />
            <Array as="points">
              <mxPoint x="810" y="2824" />
              <mxPoint x="1133" y="2824" />
            </Array>
          </mxGeometry>
        </mxCell>
        <mxCell id="WGax3jqfb48JsYN1dhlF-138" value="&lt;u&gt;i: Instituto&lt;/u&gt;" style="rounded=0;whiteSpace=wrap;html=1;" parent="1" vertex="1">
          <mxGeometry x="719.9992079671225" y="2663.9976271565756" width="120" height="60" as="geometry" />
        </mxCell>
        <mxCell id="WGax3jqfb48JsYN1dhlF-139" value="2:&amp;nbsp;" style="text;html=1;align=center;verticalAlign=middle;resizable=0;points=[];autosize=1;" parent="1" vertex="1">
          <mxGeometry x="421" y="2526" width="23" height="17" as="geometry" />
        </mxCell>
        <mxCell id="WGax3jqfb48JsYN1dhlF-140" value="obtenerCursos(): set(string)" style="text;html=1;align=center;verticalAlign=middle;resizable=0;points=[];autosize=1;" parent="1" vertex="1">
          <mxGeometry x="502" y="2670" width="157" height="17" as="geometry" />
        </mxCell>
        <mxCell id="WGax3jqfb48JsYN1dhlF-142" value="&lt;u&gt;:Cursos&lt;/u&gt;" style="rounded=0;whiteSpace=wrap;html=1;" parent="1" vertex="1">
          <mxGeometry x="1097" y="2654.33" width="120" height="56.67" as="geometry" />
        </mxCell>
        <mxCell id="WGax3jqfb48JsYN1dhlF-144" value="2.1* [foreach]" style="text;html=1;align=center;verticalAlign=middle;resizable=0;points=[];autosize=1;" parent="1" vertex="1">
          <mxGeometry x="850" y="2664" width="81" height="17" as="geometry" />
        </mxCell>
        <mxCell id="WGax3jqfb48JsYN1dhlF-145" value="c := next()" style="text;html=1;align=center;verticalAlign=middle;resizable=0;points=[];autosize=1;" parent="1" vertex="1">
          <mxGeometry x="963" y="2672" width="63" height="17" as="geometry" />
        </mxCell>
        <mxCell id="WGax3jqfb48JsYN1dhlF-147" value="&lt;u&gt;c: Curso&lt;/u&gt;" style="rounded=0;whiteSpace=wrap;html=1;" parent="1" vertex="1">
          <mxGeometry x="1073.0043479410808" y="2793.9987721761067" width="120" height="60" as="geometry" />
        </mxCell>
        <mxCell id="WGax3jqfb48JsYN1dhlF-148" value="2.2*:" style="text;html=1;align=center;verticalAlign=middle;resizable=0;points=[];autosize=1;" parent="1" vertex="1">
          <mxGeometry x="814" y="2729" width="34" height="17" as="geometry" />
        </mxCell>
        <mxCell id="WGax3jqfb48JsYN1dhlF-149" value="n := getNombre(): string" style="text;html=1;align=center;verticalAlign=middle;resizable=0;points=[];autosize=1;" parent="1" vertex="1">
          <mxGeometry x="889" y="2800" width="137" height="17" as="geometry" />
        </mxCell>
        <mxCell id="WGax3jqfb48JsYN1dhlF-150" value="" style="endArrow=none;dashed=1;html=1;dashPattern=1 3;strokeWidth=2;exitX=0.25;exitY=1;exitDx=0;exitDy=0;entryX=0;entryY=0;entryDx=65;entryDy=15;entryPerimeter=0;" parent="1" source="WGax3jqfb48JsYN1dhlF-138" target="WGax3jqfb48JsYN1dhlF-151" edge="1">
          <mxGeometry width="50" height="50" relative="1" as="geometry">
            <mxPoint x="686" y="2772" as="sourcePoint" />
            <mxPoint x="736" y="2722" as="targetPoint" />
          </mxGeometry>
        </mxCell>
        <mxCell id="WGax3jqfb48JsYN1dhlF-151" value="crea y retorna un set de string con cada n obtenido." style="shape=note;whiteSpace=wrap;html=1;backgroundOutline=1;darkOpacity=0.05;size=15;" parent="1" vertex="1">
          <mxGeometry x="613" y="2762" width="80" height="100" as="geometry" />
        </mxCell>
        <mxCell id="WGax3jqfb48JsYN1dhlF-154" value="&amp;lt;&amp;lt;global&amp;gt;&amp;gt;" style="text;html=1;align=center;verticalAlign=middle;resizable=0;points=[];autosize=1;" parent="1" vertex="1">
          <mxGeometry x="632" y="2501" width="70" height="17" as="geometry" />
        </mxCell>
        <mxCell id="WGax3jqfb48JsYN1dhlF-155" value="&amp;lt;&amp;lt;local&amp;gt;&amp;gt;" style="text;html=1;align=center;verticalAlign=middle;resizable=0;points=[];autosize=1;" parent="1" vertex="1">
          <mxGeometry x="650" y="2707" width="62" height="17" as="geometry" />
        </mxCell>
        <mxCell id="WGax3jqfb48JsYN1dhlF-156" value="&amp;lt;&amp;lt;association&amp;gt;&amp;gt;" style="text;html=1;align=center;verticalAlign=middle;resizable=0;points=[];autosize=1;" parent="1" vertex="1">
          <mxGeometry x="994" y="2700.67" width="98" height="17" as="geometry" />
        </mxCell>
        <mxCell id="WGax3jqfb48JsYN1dhlF-157" value="&amp;lt;&amp;lt;local&amp;gt;&amp;gt;" style="text;html=1;align=center;verticalAlign=middle;resizable=0;points=[];autosize=1;" parent="1" vertex="1">
          <mxGeometry x="1002" y="2837" width="62" height="17" as="geometry" />
        </mxCell>
        <mxCell id="WGax3jqfb48JsYN1dhlF-161" style="edgeStyle=orthogonalEdgeStyle;rounded=0;orthogonalLoop=1;jettySize=auto;html=1;exitX=1;exitY=0.5;exitDx=0;exitDy=0;endArrow=classic;endFill=1;" parent="1" source="WGax3jqfb48JsYN1dhlF-158" target="WGax3jqfb48JsYN1dhlF-162" edge="1">
          <mxGeometry relative="1" as="geometry">
            <mxPoint x="874.803702218192" y="3009.0000000000005" as="targetPoint" />
          </mxGeometry>
        </mxCell>
        <mxCell id="WGax3jqfb48JsYN1dhlF-167" style="edgeStyle=orthogonalEdgeStyle;rounded=0;orthogonalLoop=1;jettySize=auto;html=1;exitX=0.75;exitY=1;exitDx=0;exitDy=0;endArrow=classic;endFill=1;" parent="1" source="WGax3jqfb48JsYN1dhlF-158" target="WGax3jqfb48JsYN1dhlF-168" edge="1">
          <mxGeometry relative="1" as="geometry">
            <mxPoint x="841.4513854980469" y="3290.125030517578" as="targetPoint" />
            <Array as="points">
              <mxPoint x="442" y="3167" />
              <mxPoint x="864" y="3167" />
            </Array>
          </mxGeometry>
        </mxCell>
        <mxCell id="WGax3jqfb48JsYN1dhlF-158" value="&lt;u&gt;:ControladorConsultaDeCurso&lt;/u&gt;" style="rounded=0;whiteSpace=wrap;html=1;" parent="1" vertex="1">
          <mxGeometry x="308" y="2979" width="179" height="60" as="geometry" />
        </mxCell>
        <mxCell id="WGax3jqfb48JsYN1dhlF-159" value="" style="endArrow=classic;html=1;" parent="1" edge="1">
          <mxGeometry width="50" height="50" relative="1" as="geometry">
            <mxPoint x="62" y="3005" as="sourcePoint" />
            <mxPoint x="308" y="3005" as="targetPoint" />
          </mxGeometry>
        </mxCell>
        <mxCell id="WGax3jqfb48JsYN1dhlF-160" value="seleccionarCurso(curso: string): DtCursoExp" style="text;html=1;strokeColor=none;fillColor=none;align=center;verticalAlign=middle;whiteSpace=wrap;rounded=0;" parent="1" vertex="1">
          <mxGeometry x="53" y="2972" width="248" height="20" as="geometry" />
        </mxCell>
        <mxCell id="WGax3jqfb48JsYN1dhlF-162" value="&lt;u&gt;:Curso&lt;/u&gt;" style="rounded=0;whiteSpace=wrap;html=1;" parent="1" vertex="1">
          <mxGeometry x="807" y="2979" width="147" height="60" as="geometry" />
        </mxCell>
        <mxCell id="WGax3jqfb48JsYN1dhlF-164" value="1:" style="text;html=1;align=center;verticalAlign=middle;resizable=0;points=[];autosize=1;" parent="1" vertex="1">
          <mxGeometry x="491" y="2978" width="20" height="17" as="geometry" />
        </mxCell>
        <mxCell id="WGax3jqfb48JsYN1dhlF-165" value="c := find(curso)" style="text;html=1;align=center;verticalAlign=middle;resizable=0;points=[];autosize=1;" parent="1" vertex="1">
          <mxGeometry x="590" y="2983" width="90" height="17" as="geometry" />
        </mxCell>
        <mxCell id="WGax3jqfb48JsYN1dhlF-173" style="edgeStyle=orthogonalEdgeStyle;rounded=0;orthogonalLoop=1;jettySize=auto;html=1;exitX=0.25;exitY=1;exitDx=0;exitDy=0;endArrow=classic;endFill=1;" parent="1" source="WGax3jqfb48JsYN1dhlF-168" target="WGax3jqfb48JsYN1dhlF-174" edge="1">
          <mxGeometry relative="1" as="geometry">
            <mxPoint x="1018.1181335449219" y="3477.902801513672" as="targetPoint" />
            <Array as="points">
              <mxPoint x="1115" y="3196" />
              <mxPoint x="1115" y="3228" />
              <mxPoint x="200" y="3228" />
              <mxPoint x="200" y="3353" />
            </Array>
          </mxGeometry>
        </mxCell>
        <mxCell id="WGax3jqfb48JsYN1dhlF-180" style="edgeStyle=orthogonalEdgeStyle;rounded=0;orthogonalLoop=1;jettySize=auto;html=1;exitX=0.5;exitY=1;exitDx=0;exitDy=0;endArrow=classic;endFill=1;" parent="1" source="WGax3jqfb48JsYN1dhlF-168" target="WGax3jqfb48JsYN1dhlF-181" edge="1">
          <mxGeometry relative="1" as="geometry">
            <mxPoint x="700.200430733817" y="3397.4327043805806" as="targetPoint" />
            <Array as="points">
              <mxPoint x="1135" y="3196" />
              <mxPoint x="1135" y="3299" />
              <mxPoint x="462" y="3299" />
              <mxPoint x="462" y="3397" />
            </Array>
          </mxGeometry>
        </mxCell>
        <mxCell id="WGax3jqfb48JsYN1dhlF-184" style="edgeStyle=orthogonalEdgeStyle;rounded=0;orthogonalLoop=1;jettySize=auto;html=1;exitX=0.5;exitY=1;exitDx=0;exitDy=0;endArrow=classic;endFill=1;entryX=0;entryY=0.75;entryDx=0;entryDy=0;" parent="1" source="WGax3jqfb48JsYN1dhlF-168" target="WGax3jqfb48JsYN1dhlF-185" edge="1">
          <mxGeometry relative="1" as="geometry">
            <mxPoint x="689" y="3452" as="targetPoint" />
            <Array as="points">
              <mxPoint x="1173" y="3359" />
              <mxPoint x="673" y="3359" />
              <mxPoint x="673" y="3430" />
            </Array>
          </mxGeometry>
        </mxCell>
        <mxCell id="WGax3jqfb48JsYN1dhlF-189" style="edgeStyle=orthogonalEdgeStyle;rounded=0;orthogonalLoop=1;jettySize=auto;html=1;exitX=1;exitY=1;exitDx=0;exitDy=0;endArrow=classic;endFill=1;" parent="1" source="WGax3jqfb48JsYN1dhlF-168" target="WGax3jqfb48JsYN1dhlF-190" edge="1">
          <mxGeometry relative="1" as="geometry">
            <mxPoint x="1241" y="3380.1251831054688" as="targetPoint" />
            <Array as="points">
              <mxPoint x="1226" y="3196" />
              <mxPoint x="1226" y="3337" />
              <mxPoint x="1355" y="3337" />
            </Array>
          </mxGeometry>
        </mxCell>
        <mxCell id="WGax3jqfb48JsYN1dhlF-168" value="&lt;u&gt;c :Curso&lt;/u&gt;" style="rounded=0;whiteSpace=wrap;html=1;" parent="1" vertex="1">
          <mxGeometry x="1104" y="3136" width="137" height="60" as="geometry" />
        </mxCell>
        <mxCell id="WGax3jqfb48JsYN1dhlF-169" value="2:" style="text;html=1;align=center;verticalAlign=middle;resizable=0;points=[];autosize=1;" parent="1" vertex="1">
          <mxGeometry x="447" y="3048" width="20" height="17" as="geometry" />
        </mxCell>
        <mxCell id="WGax3jqfb48JsYN1dhlF-170" value="obtenerDatos(): DtCursoExp" style="text;html=1;align=center;verticalAlign=middle;resizable=0;points=[];autosize=1;" parent="1" vertex="1">
          <mxGeometry x="717" y="3142" width="161" height="17" as="geometry" />
        </mxCell>
        <mxCell id="WGax3jqfb48JsYN1dhlF-171" style="edgeStyle=orthogonalEdgeStyle;rounded=0;orthogonalLoop=1;jettySize=auto;html=1;exitX=0.75;exitY=0;exitDx=0;exitDy=0;entryX=0.75;entryY=1;entryDx=0;entryDy=0;endArrow=classic;endFill=1;" parent="1" source="WGax3jqfb48JsYN1dhlF-168" target="WGax3jqfb48JsYN1dhlF-168" edge="1">
          <mxGeometry relative="1" as="geometry" />
        </mxCell>
        <mxCell id="WGax3jqfb48JsYN1dhlF-172" value="2.1: n := getNombre():string&lt;br&gt;2.2: d := getDesc(): string&lt;br&gt;2.3: du := getDuracion(): string&lt;br&gt;2.4: cant := getCantHoras(): DtTime&lt;br&gt;2.5: cre := getCreditos(): int&lt;br&gt;2.6: fR := getFechaR(): DtFecha&lt;br&gt;2.7: url := getUrl(): string" style="text;html=1;align=left;verticalAlign=middle;resizable=0;points=[];autosize=1;" parent="1" vertex="1">
          <mxGeometry x="1271" y="3114" width="200" height="97" as="geometry" />
        </mxCell>
        <mxCell id="WGax3jqfb48JsYN1dhlF-174" value="&lt;u&gt;:Edicion&lt;/u&gt;" style="rounded=0;whiteSpace=wrap;html=1;" parent="1" vertex="1">
          <mxGeometry x="282.998133544922" y="3306.002801513672" width="120" height="60" as="geometry" />
        </mxCell>
        <mxCell id="WGax3jqfb48JsYN1dhlF-176" value="2.8* [foreach]:" style="text;html=1;align=center;verticalAlign=middle;resizable=0;points=[];autosize=1;" parent="1" vertex="1">
          <mxGeometry x="1027" y="3205" width="84" height="17" as="geometry" />
        </mxCell>
        <mxCell id="WGax3jqfb48JsYN1dhlF-178" value="e := next()" style="text;html=1;align=center;verticalAlign=middle;resizable=0;points=[];autosize=1;" parent="1" vertex="1">
          <mxGeometry x="210" y="3324" width="64" height="17" as="geometry" />
        </mxCell>
        <mxCell id="WGax3jqfb48JsYN1dhlF-181" value="&lt;u&gt;e: Edicion&lt;/u&gt;" style="rounded=0;whiteSpace=wrap;html=1;" parent="1" vertex="1">
          <mxGeometry x="515.000430733817" y="3366.002704380581" width="120" height="60" as="geometry" />
        </mxCell>
        <mxCell id="WGax3jqfb48JsYN1dhlF-182" value="2.9*:" style="text;html=1;align=center;verticalAlign=middle;resizable=0;points=[];autosize=1;" parent="1" vertex="1">
          <mxGeometry x="1097" y="3275" width="34" height="17" as="geometry" />
        </mxCell>
        <mxCell id="WGax3jqfb48JsYN1dhlF-183" value="nomE := getNombre(): string" style="text;html=1;align=center;verticalAlign=middle;resizable=0;points=[];autosize=1;" parent="1" vertex="1">
          <mxGeometry x="668" y="3275" width="161" height="17" as="geometry" />
        </mxCell>
        <mxCell id="WGax3jqfb48JsYN1dhlF-185" value="&lt;u&gt;:ProgramaDeFormacion&lt;/u&gt;" style="rounded=0;whiteSpace=wrap;html=1;" parent="1" vertex="1">
          <mxGeometry x="720" y="3385" width="151" height="60" as="geometry" />
        </mxCell>
        <mxCell id="WGax3jqfb48JsYN1dhlF-187" value="2.10* [foreach]:" style="text;html=1;align=center;verticalAlign=middle;resizable=0;points=[];autosize=1;" parent="1" vertex="1">
          <mxGeometry x="1078" y="3336" width="91" height="17" as="geometry" />
        </mxCell>
        <mxCell id="WGax3jqfb48JsYN1dhlF-188" value="pf := next()&amp;nbsp;" style="text;html=1;align=center;verticalAlign=middle;resizable=0;points=[];autosize=1;" parent="1" vertex="1">
          <mxGeometry x="760" y="3336" width="71" height="17" as="geometry" />
        </mxCell>
        <mxCell id="WGax3jqfb48JsYN1dhlF-190" value="&lt;u&gt;pf := ProgramaDeFormacion&lt;/u&gt;" style="rounded=0;whiteSpace=wrap;html=1;" parent="1" vertex="1">
          <mxGeometry x="1411" y="3379" width="163" height="60" as="geometry" />
        </mxCell>
        <mxCell id="WGax3jqfb48JsYN1dhlF-192" value="2.11*:" style="text;html=1;align=center;verticalAlign=middle;resizable=0;points=[];autosize=1;" parent="1" vertex="1">
          <mxGeometry x="1227" y="3232" width="40" height="17" as="geometry" />
        </mxCell>
        <mxCell id="WGax3jqfb48JsYN1dhlF-193" value="nomP := getNombre(): string" style="text;html=1;align=center;verticalAlign=middle;resizable=0;points=[];autosize=1;" parent="1" vertex="1">
          <mxGeometry x="1225" y="3314" width="161" height="17" as="geometry" />
        </mxCell>
        <mxCell id="WGax3jqfb48JsYN1dhlF-194" value="" style="endArrow=none;dashed=1;html=1;dashPattern=1 3;strokeWidth=2;" parent="1" target="WGax3jqfb48JsYN1dhlF-195" edge="1">
          <mxGeometry width="50" height="50" relative="1" as="geometry">
            <mxPoint x="1132" y="3136" as="sourcePoint" />
            <mxPoint x="1182" y="3086" as="targetPoint" />
          </mxGeometry>
        </mxCell>
        <mxCell id="WGax3jqfb48JsYN1dhlF-195" value="Se construye y retorna DtCursoExp con los datos obtenidos." style="shape=note;whiteSpace=wrap;html=1;backgroundOutline=1;darkOpacity=0.05;size=17;" parent="1" vertex="1">
          <mxGeometry x="1193" y="2952" width="146" height="114" as="geometry" />
        </mxCell>
        <mxCell id="WGax3jqfb48JsYN1dhlF-196" value="&amp;lt;&amp;lt;global&amp;gt;&amp;gt;" style="text;html=1;align=center;verticalAlign=middle;resizable=0;points=[];autosize=1;" parent="1" vertex="1">
          <mxGeometry x="721" y="3016" width="70" height="17" as="geometry" />
        </mxCell>
        <mxCell id="WGax3jqfb48JsYN1dhlF-197" value="&amp;lt;&amp;lt;local&amp;gt;&amp;gt;" style="text;html=1;align=center;verticalAlign=middle;resizable=0;points=[];autosize=1;" parent="1" vertex="1">
          <mxGeometry x="1031" y="3136" width="62" height="17" as="geometry" />
        </mxCell>
        <mxCell id="WGax3jqfb48JsYN1dhlF-198" value="&amp;lt;&amp;lt;association&amp;gt;&amp;gt;" style="text;html=1;align=center;verticalAlign=middle;resizable=0;points=[];autosize=1;" parent="1" vertex="1">
          <mxGeometry x="203" y="3372" width="98" height="17" as="geometry" />
        </mxCell>
        <mxCell id="WGax3jqfb48JsYN1dhlF-199" value="&amp;lt;&amp;lt;local&amp;gt;&amp;gt;" style="text;html=1;align=center;verticalAlign=middle;resizable=0;points=[];autosize=1;" parent="1" vertex="1">
          <mxGeometry x="453" y="3414" width="62" height="17" as="geometry" />
        </mxCell>
        <mxCell id="WGax3jqfb48JsYN1dhlF-200" value="&amp;lt;&amp;lt;association&amp;gt;&amp;gt;" style="text;html=1;align=center;verticalAlign=middle;resizable=0;points=[];autosize=1;" parent="1" vertex="1">
          <mxGeometry x="671" y="3449" width="98" height="17" as="geometry" />
        </mxCell>
        <mxCell id="WGax3jqfb48JsYN1dhlF-201" value="&amp;lt;&amp;lt;local&amp;gt;&amp;gt;" style="text;html=1;align=center;verticalAlign=middle;resizable=0;points=[];autosize=1;" parent="1" vertex="1">
          <mxGeometry x="1343" y="3418" width="62" height="17" as="geometry" />
        </mxCell>
        <mxCell id="WGax3jqfb48JsYN1dhlF-202" value="seleccionarEdicion(edicion: string): DtEdicion" style="text;html=1;strokeColor=none;fillColor=none;align=center;verticalAlign=middle;whiteSpace=wrap;rounded=0;" parent="1" vertex="1">
          <mxGeometry x="98" y="3629" width="300" height="20" as="geometry" />
        </mxCell>
        <mxCell id="WGax3jqfb48JsYN1dhlF-205" style="edgeStyle=orthogonalEdgeStyle;rounded=0;orthogonalLoop=1;jettySize=auto;html=1;exitX=1;exitY=0.5;exitDx=0;exitDy=0;endArrow=classic;endFill=1;" parent="1" source="WGax3jqfb48JsYN1dhlF-203" target="WGax3jqfb48JsYN1dhlF-206" edge="1">
          <mxGeometry relative="1" as="geometry">
            <mxPoint x="1053.8186394186582" y="3655.5294117647063" as="targetPoint" />
          </mxGeometry>
        </mxCell>
        <mxCell id="WGax3jqfb48JsYN1dhlF-210" style="edgeStyle=orthogonalEdgeStyle;rounded=0;orthogonalLoop=1;jettySize=auto;html=1;exitX=0.75;exitY=1;exitDx=0;exitDy=0;endArrow=classic;endFill=1;" parent="1" source="WGax3jqfb48JsYN1dhlF-203" target="WGax3jqfb48JsYN1dhlF-211" edge="1">
          <mxGeometry relative="1" as="geometry">
            <mxPoint x="1020.3403015136719" y="3851.2362365722656" as="targetPoint" />
            <Array as="points">
              <mxPoint x="548" y="3851" />
            </Array>
          </mxGeometry>
        </mxCell>
        <mxCell id="WGax3jqfb48JsYN1dhlF-203" value="&lt;u&gt;:ControladorConsultaDeCurso&lt;/u&gt;" style="rounded=0;whiteSpace=wrap;html=1;" parent="1" vertex="1">
          <mxGeometry x="407.75" y="3625" width="186.5" height="60" as="geometry" />
        </mxCell>
        <mxCell id="WGax3jqfb48JsYN1dhlF-204" value="" style="endArrow=classic;html=1;" parent="1" edge="1">
          <mxGeometry width="50" height="50" relative="1" as="geometry">
            <mxPoint x="92" y="3658" as="sourcePoint" />
            <mxPoint x="407.75" y="3658" as="targetPoint" />
          </mxGeometry>
        </mxCell>
        <mxCell id="WGax3jqfb48JsYN1dhlF-206" value="&lt;u&gt;:Edicion&lt;/u&gt;" style="rounded=0;whiteSpace=wrap;html=1;" parent="1" vertex="1">
          <mxGeometry x="988.9986394186582" y="3624.999411764706" width="120" height="60" as="geometry" />
        </mxCell>
        <mxCell id="WGax3jqfb48JsYN1dhlF-208" value="1:" style="text;html=1;align=center;verticalAlign=middle;resizable=0;points=[];autosize=1;" parent="1" vertex="1">
          <mxGeometry x="604" y="3631" width="20" height="17" as="geometry" />
        </mxCell>
        <mxCell id="WGax3jqfb48JsYN1dhlF-209" value="e := find(edicion)" style="text;html=1;align=center;verticalAlign=middle;resizable=0;points=[];autosize=1;" parent="1" vertex="1">
          <mxGeometry x="733" y="3629" width="99" height="17" as="geometry" />
        </mxCell>
        <mxCell id="WGax3jqfb48JsYN1dhlF-211" value="&lt;u&gt;e: Edicion&lt;/u&gt;" style="rounded=0;whiteSpace=wrap;html=1;" parent="1" vertex="1">
          <mxGeometry x="960.3403015136719" y="3821.2362365722656" width="120" height="60" as="geometry" />
        </mxCell>
        <mxCell id="WGax3jqfb48JsYN1dhlF-212" value="2:" style="text;html=1;align=center;verticalAlign=middle;resizable=0;points=[];autosize=1;" parent="1" vertex="1">
          <mxGeometry x="552" y="3688" width="20" height="17" as="geometry" />
        </mxCell>
        <mxCell id="WGax3jqfb48JsYN1dhlF-213" value="obtenerDatos(): DtEdicion" style="text;html=1;align=center;verticalAlign=middle;resizable=0;points=[];autosize=1;" parent="1" vertex="1">
          <mxGeometry x="679" y="3827" width="148" height="17" as="geometry" />
        </mxCell>
        <mxCell id="WGax3jqfb48JsYN1dhlF-214" style="edgeStyle=orthogonalEdgeStyle;rounded=0;orthogonalLoop=1;jettySize=auto;html=1;exitX=0.75;exitY=0;exitDx=0;exitDy=0;entryX=0.75;entryY=1;entryDx=0;entryDy=0;endArrow=classic;endFill=1;" parent="1" source="WGax3jqfb48JsYN1dhlF-211" target="WGax3jqfb48JsYN1dhlF-211" edge="1">
          <mxGeometry relative="1" as="geometry" />
        </mxCell>
        <mxCell id="WGax3jqfb48JsYN1dhlF-215" value="2.1: n := getNombre(): string&lt;br&gt;2.2: fi := fechaI(): DtFecha&lt;br&gt;2.3: ff := fechaF(): DtFecha&lt;br&gt;2.4: cu := getCupo(): int&lt;br&gt;2.5: fp := getFechaPub(): DtFecha" style="text;html=1;align=left;verticalAlign=middle;resizable=0;points=[];autosize=1;" parent="1" vertex="1">
          <mxGeometry x="1109" y="3807" width="191" height="71" as="geometry" />
        </mxCell>
        <mxCell id="WGax3jqfb48JsYN1dhlF-216" value="" style="endArrow=none;dashed=1;html=1;dashPattern=1 3;strokeWidth=2;exitX=0.148;exitY=1;exitDx=0;exitDy=0;exitPerimeter=0;entryX=0;entryY=0;entryDx=65;entryDy=15;entryPerimeter=0;" parent="1" source="WGax3jqfb48JsYN1dhlF-211" target="WGax3jqfb48JsYN1dhlF-217" edge="1">
          <mxGeometry width="50" height="50" relative="1" as="geometry">
            <mxPoint x="932.5" y="3931.24" as="sourcePoint" />
            <mxPoint x="982.5" y="3881.24" as="targetPoint" />
          </mxGeometry>
        </mxCell>
        <mxCell id="WGax3jqfb48JsYN1dhlF-217" value="Se construye y retorna DtEdicion con los datos obtenidos." style="shape=note;whiteSpace=wrap;html=1;backgroundOutline=1;darkOpacity=0.05;size=16;" parent="1" vertex="1">
          <mxGeometry x="827" y="3941" width="123" height="100" as="geometry" />
        </mxCell>
        <mxCell id="WGax3jqfb48JsYN1dhlF-218" value="" style="rounded=0;whiteSpace=wrap;html=1;" parent="1" vertex="1">
          <mxGeometry x="990" y="4169" width="140" height="60" as="geometry" />
        </mxCell>
        <mxCell id="WGax3jqfb48JsYN1dhlF-220" style="edgeStyle=orthogonalEdgeStyle;rounded=0;orthogonalLoop=1;jettySize=auto;html=1;exitX=1;exitY=0.5;exitDx=0;exitDy=0;endArrow=classic;endFill=1;" parent="1" source="WGax3jqfb48JsYN1dhlF-222" target="WGax3jqfb48JsYN1dhlF-224" edge="1">
          <mxGeometry relative="1" as="geometry">
            <mxPoint x="1042.8186394186582" y="4211.529411764706" as="targetPoint" />
          </mxGeometry>
        </mxCell>
        <mxCell id="WGax3jqfb48JsYN1dhlF-221" style="edgeStyle=orthogonalEdgeStyle;rounded=0;orthogonalLoop=1;jettySize=auto;html=1;exitX=0.75;exitY=1;exitDx=0;exitDy=0;endArrow=classic;endFill=1;" parent="1" source="WGax3jqfb48JsYN1dhlF-222" target="WGax3jqfb48JsYN1dhlF-227" edge="1">
          <mxGeometry relative="1" as="geometry">
            <mxPoint x="1009.3403015136719" y="4407.236236572266" as="targetPoint" />
            <Array as="points">
              <mxPoint x="537" y="4386" />
              <mxPoint x="1038" y="4386" />
            </Array>
          </mxGeometry>
        </mxCell>
        <mxCell id="WGax3jqfb48JsYN1dhlF-248" style="edgeStyle=orthogonalEdgeStyle;rounded=0;orthogonalLoop=1;jettySize=auto;html=1;exitX=0.25;exitY=1;exitDx=0;exitDy=0;endArrow=classic;endFill=1;" parent="1" edge="1">
          <mxGeometry relative="1" as="geometry">
            <mxPoint x="141.49813354492187" y="4364.791900634766" as="targetPoint" />
            <Array as="points">
              <mxPoint x="360" y="4229" />
              <mxPoint x="360" y="4297" />
              <mxPoint x="142" y="4297" />
            </Array>
            <mxPoint x="396.755" y="4229" as="sourcePoint" />
          </mxGeometry>
        </mxCell>
        <mxCell id="ERN3U17185KaFVGdUrSm-2" style="edgeStyle=orthogonalEdgeStyle;rounded=0;orthogonalLoop=1;jettySize=auto;html=1;exitX=0.25;exitY=1;exitDx=0;exitDy=0;entryX=0.093;entryY=0.002;entryDx=0;entryDy=0;entryPerimeter=0;" parent="1" source="WGax3jqfb48JsYN1dhlF-222" target="WGax3jqfb48JsYN1dhlF-250" edge="1">
          <mxGeometry relative="1" as="geometry" />
        </mxCell>
        <mxCell id="WGax3jqfb48JsYN1dhlF-222" value="&lt;u&gt;:ControladorConsultaDeCurso&lt;/u&gt;" style="rounded=0;whiteSpace=wrap;html=1;" parent="1" vertex="1">
          <mxGeometry x="396.75" y="4181" width="186.5" height="60" as="geometry" />
        </mxCell>
        <mxCell id="WGax3jqfb48JsYN1dhlF-223" value="" style="endArrow=classic;html=1;" parent="1" edge="1">
          <mxGeometry width="50" height="50" relative="1" as="geometry">
            <mxPoint x="81" y="4214" as="sourcePoint" />
            <mxPoint x="396.75" y="4214" as="targetPoint" />
          </mxGeometry>
        </mxCell>
        <mxCell id="WGax3jqfb48JsYN1dhlF-224" value="&lt;u&gt;:ProgamaDeFormacion&lt;/u&gt;" style="rounded=0;whiteSpace=wrap;html=1;" parent="1" vertex="1">
          <mxGeometry x="978" y="4181" width="137" height="60" as="geometry" />
        </mxCell>
        <mxCell id="WGax3jqfb48JsYN1dhlF-225" value="1:" style="text;html=1;align=center;verticalAlign=middle;resizable=0;points=[];autosize=1;" parent="1" vertex="1">
          <mxGeometry x="593" y="4187" width="20" height="17" as="geometry" />
        </mxCell>
        <mxCell id="WGax3jqfb48JsYN1dhlF-226" value="pf := find(progFormacion)" style="text;html=1;align=center;verticalAlign=middle;resizable=0;points=[];autosize=1;" parent="1" vertex="1">
          <mxGeometry x="700" y="4185" width="144" height="17" as="geometry" />
        </mxCell>
        <mxCell id="WGax3jqfb48JsYN1dhlF-227" value="&lt;u&gt;pf: Programa De Formacion&lt;/u&gt;" style="rounded=0;whiteSpace=wrap;html=1;" parent="1" vertex="1">
          <mxGeometry x="978.3403015136719" y="4296.036236572266" width="120" height="60" as="geometry" />
        </mxCell>
        <mxCell id="WGax3jqfb48JsYN1dhlF-228" value="2:" style="text;html=1;align=center;verticalAlign=middle;resizable=0;points=[];autosize=1;" parent="1" vertex="1">
          <mxGeometry x="541" y="4244" width="20" height="17" as="geometry" />
        </mxCell>
        <mxCell id="WGax3jqfb48JsYN1dhlF-229" value="obtenerDatos(): DtProgFormacionExp" style="text;html=1;align=center;verticalAlign=middle;resizable=0;points=[];autosize=1;" parent="1" vertex="1">
          <mxGeometry x="666" y="4301.8" width="211" height="17" as="geometry" />
        </mxCell>
        <mxCell id="WGax3jqfb48JsYN1dhlF-230" style="edgeStyle=orthogonalEdgeStyle;rounded=0;orthogonalLoop=1;jettySize=auto;html=1;exitX=0.75;exitY=0;exitDx=0;exitDy=0;entryX=0.75;entryY=1;entryDx=0;entryDy=0;endArrow=classic;endFill=1;" parent="1" source="WGax3jqfb48JsYN1dhlF-227" target="WGax3jqfb48JsYN1dhlF-227" edge="1">
          <mxGeometry relative="1" as="geometry" />
        </mxCell>
        <mxCell id="WGax3jqfb48JsYN1dhlF-231" value="2.1: n := getNombre(): string&lt;br&gt;2.2: d := getDesc(): string&lt;br&gt;2.3: fi := fechaI(): DtFecha&lt;br&gt;2.4: ff := fechaF(): DtFecha&lt;br&gt;" style="text;html=1;align=left;verticalAlign=middle;resizable=0;points=[];autosize=1;" parent="1" vertex="1">
          <mxGeometry x="1127" y="4289.8" width="160" height="57" as="geometry" />
        </mxCell>
        <mxCell id="WGax3jqfb48JsYN1dhlF-232" value="" style="endArrow=none;dashed=1;html=1;dashPattern=1 3;strokeWidth=2;exitX=0;exitY=0.75;exitDx=0;exitDy=0;entryX=0;entryY=0;entryDx=65;entryDy=15;entryPerimeter=0;" parent="1" source="WGax3jqfb48JsYN1dhlF-227" target="WGax3jqfb48JsYN1dhlF-233" edge="1">
          <mxGeometry width="50" height="50" relative="1" as="geometry">
            <mxPoint x="950.5" y="4406.04" as="sourcePoint" />
            <mxPoint x="1000.5" y="4356.04" as="targetPoint" />
          </mxGeometry>
        </mxCell>
        <mxCell id="WGax3jqfb48JsYN1dhlF-233" value="Se construye y retorna un DtProgFormacionExp con los datos obtenidos y con cursos vacio." style="shape=note;whiteSpace=wrap;html=1;backgroundOutline=1;darkOpacity=0.05;size=16;" parent="1" vertex="1">
          <mxGeometry x="773" y="4368.8" width="142" height="100" as="geometry" />
        </mxCell>
        <mxCell id="WGax3jqfb48JsYN1dhlF-234" value="seleccionarProgFormacion(progFormacion: string): DtProgFormacionExp" style="text;html=1;strokeColor=none;fillColor=none;align=center;verticalAlign=middle;whiteSpace=wrap;rounded=0;" parent="1" vertex="1">
          <mxGeometry x="106" y="4183.5" width="256" height="20" as="geometry" />
        </mxCell>
        <mxCell id="WGax3jqfb48JsYN1dhlF-236" value="" style="rounded=0;whiteSpace=wrap;html=1;" parent="1" vertex="1">
          <mxGeometry x="84.18692749023438" y="4364.999732666016" width="120" height="60" as="geometry" />
        </mxCell>
        <mxCell id="WGax3jqfb48JsYN1dhlF-238" value="3*[foreach]:" style="text;html=1;align=center;verticalAlign=middle;resizable=0;points=[];autosize=1;" parent="1" vertex="1">
          <mxGeometry x="290" y="4232" width="71" height="17" as="geometry" />
        </mxCell>
        <mxCell id="WGax3jqfb48JsYN1dhlF-239" value="c := next()" style="text;html=1;align=center;verticalAlign=middle;resizable=0;points=[];autosize=1;" parent="1" vertex="1">
          <mxGeometry x="150.88" y="4342" width="63" height="17" as="geometry" />
        </mxCell>
        <mxCell id="WGax3jqfb48JsYN1dhlF-242" value="&amp;lt;&amp;lt;global&amp;gt;&amp;gt;" style="text;html=1;align=center;verticalAlign=middle;resizable=0;points=[];autosize=1;" parent="1" vertex="1">
          <mxGeometry x="75.38" y="4438" width="70" height="17" as="geometry" />
        </mxCell>
        <mxCell id="ERN3U17185KaFVGdUrSm-8" style="edgeStyle=orthogonalEdgeStyle;rounded=0;orthogonalLoop=1;jettySize=auto;html=1;exitX=0.5;exitY=1;exitDx=0;exitDy=0;entryX=0.421;entryY=0.014;entryDx=0;entryDy=0;entryPerimeter=0;" parent="1" source="WGax3jqfb48JsYN1dhlF-250" target="ERN3U17185KaFVGdUrSm-4" edge="1">
          <mxGeometry relative="1" as="geometry" />
        </mxCell>
        <mxCell id="ERN3U17185KaFVGdUrSm-25" style="edgeStyle=orthogonalEdgeStyle;rounded=0;orthogonalLoop=1;jettySize=auto;html=1;exitX=0.75;exitY=1;exitDx=0;exitDy=0;entryX=0.121;entryY=0.011;entryDx=0;entryDy=0;entryPerimeter=0;strokeWidth=1;" parent="1" source="WGax3jqfb48JsYN1dhlF-250" target="ERN3U17185KaFVGdUrSm-24" edge="1">
          <mxGeometry relative="1" as="geometry" />
        </mxCell>
        <mxCell id="ERN3U17185KaFVGdUrSm-32" style="edgeStyle=orthogonalEdgeStyle;rounded=0;orthogonalLoop=1;jettySize=auto;html=1;exitX=1;exitY=0.25;exitDx=0;exitDy=0;strokeWidth=1;" parent="1" source="WGax3jqfb48JsYN1dhlF-250" edge="1">
          <mxGeometry relative="1" as="geometry">
            <mxPoint x="374.16666666666674" y="4450" as="targetPoint" />
            <Array as="points">
              <mxPoint x="412" y="4410" />
              <mxPoint x="412" y="4467" />
              <mxPoint x="374" y="4467" />
            </Array>
          </mxGeometry>
        </mxCell>
        <mxCell id="WGax3jqfb48JsYN1dhlF-250" value="&lt;u&gt;c: Curso&lt;/u&gt;" style="rounded=0;whiteSpace=wrap;html=1;" parent="1" vertex="1">
          <mxGeometry x="253.99813354492187" y="4395.0016259765625" width="120" height="60" as="geometry" />
        </mxCell>
        <mxCell id="WGax3jqfb48JsYN1dhlF-251" value="&lt;font style=&quot;font-size: 40px&quot;&gt;&lt;b&gt;Alta Usuario&lt;/b&gt;&lt;/font&gt;" style="text;html=1;align=center;verticalAlign=middle;resizable=0;points=[];autosize=1;" parent="1" vertex="1">
          <mxGeometry x="1135" y="110" width="246" height="26" as="geometry" />
        </mxCell>
        <mxCell id="WGax3jqfb48JsYN1dhlF-252" value="&lt;font style=&quot;font-size: 40px&quot;&gt;&lt;b&gt;Alta Curso&lt;/b&gt;&lt;/font&gt;" style="text;html=1;align=center;verticalAlign=middle;resizable=0;points=[];autosize=1;" parent="1" vertex="1">
          <mxGeometry x="1196" y="1209" width="212" height="26" as="geometry" />
        </mxCell>
        <mxCell id="WGax3jqfb48JsYN1dhlF-253" value="&lt;font style=&quot;font-size: 40px&quot;&gt;&lt;b&gt;Consulta de Curso&lt;/b&gt;&lt;/font&gt;" style="text;html=1;align=center;verticalAlign=middle;resizable=0;points=[];autosize=1;" parent="1" vertex="1">
          <mxGeometry x="1157" y="2395" width="366" height="26" as="geometry" />
        </mxCell>
        <mxCell id="ERN3U17185KaFVGdUrSm-1" value="4*:" style="text;html=1;strokeColor=none;fillColor=none;align=center;verticalAlign=middle;whiteSpace=wrap;rounded=0;" parent="1" vertex="1">
          <mxGeometry x="406" y="4249" width="40" height="20" as="geometry" />
        </mxCell>
        <mxCell id="ERN3U17185KaFVGdUrSm-3" value="cursos= encontrarPrograma(): set(string) " style="text;html=1;strokeColor=none;fillColor=none;align=center;verticalAlign=middle;whiteSpace=wrap;rounded=0;" parent="1" vertex="1">
          <mxGeometry x="269.5" y="4356.04" width="185" height="19" as="geometry" />
        </mxCell>
        <mxCell id="WGax3jqfb48JsYN1dhlF-237" value="&lt;u&gt;:Curso&lt;/u&gt;" style="rounded=0;whiteSpace=wrap;html=1;" parent="1" vertex="1">
          <mxGeometry x="73.80692749023439" y="4373.759732666016" width="120" height="60" as="geometry" />
        </mxCell>
        <mxCell id="ERN3U17185KaFVGdUrSm-4" value="" style="rounded=0;whiteSpace=wrap;html=1;" parent="1" vertex="1">
          <mxGeometry x="73.81" y="4546" width="130.19" height="63" as="geometry" />
        </mxCell>
        <mxCell id="ERN3U17185KaFVGdUrSm-5" value="&lt;u&gt;:ProgramaDeFormacion&lt;/u&gt;" style="rounded=0;whiteSpace=wrap;html=1;" parent="1" vertex="1">
          <mxGeometry x="63.43" y="4557" width="130.57" height="60.76" as="geometry" />
        </mxCell>
        <mxCell id="ERN3U17185KaFVGdUrSm-11" value="4*.1*: [foreach]" style="text;html=1;strokeColor=none;fillColor=none;align=center;verticalAlign=middle;whiteSpace=wrap;rounded=0;" parent="1" vertex="1">
          <mxGeometry x="188" y="4460" width="124" height="21" as="geometry" />
        </mxCell>
        <mxCell id="ERN3U17185KaFVGdUrSm-12" value="pf:= next()" style="text;html=1;strokeColor=none;fillColor=none;align=center;verticalAlign=middle;whiteSpace=wrap;rounded=0;" parent="1" vertex="1">
          <mxGeometry x="156.5" y="4481" width="90" height="20" as="geometry" />
        </mxCell>
        <mxCell id="ERN3U17185KaFVGdUrSm-20" value="4*.3*[existe] nomCurso:= getNombre(): string" style="text;html=1;strokeColor=none;fillColor=none;align=center;verticalAlign=middle;whiteSpace=wrap;rounded=0;" parent="1" vertex="1">
          <mxGeometry x="372" y="4472" width="252" height="20" as="geometry" />
        </mxCell>
        <mxCell id="ERN3U17185KaFVGdUrSm-22" style="edgeStyle=orthogonalEdgeStyle;rounded=0;orthogonalLoop=1;jettySize=auto;html=1;exitX=0;exitY=0;exitDx=0;exitDy=0;exitPerimeter=0;entryX=1;entryY=0;entryDx=0;entryDy=0;strokeWidth=1;dashed=1;" parent="1" source="ERN3U17185KaFVGdUrSm-21" target="WGax3jqfb48JsYN1dhlF-250" edge="1">
          <mxGeometry relative="1" as="geometry">
            <Array as="points">
              <mxPoint x="427" y="4388" />
              <mxPoint x="374" y="4388" />
            </Array>
          </mxGeometry>
        </mxCell>
        <mxCell id="ERN3U17185KaFVGdUrSm-21" value="Se actualiza el atributo cursos al DtProgFormacionExp creado" style="shape=note;whiteSpace=wrap;html=1;size=14;verticalAlign=top;align=left;spacingTop=-6;" parent="1" vertex="1">
          <mxGeometry x="427" y="4395" width="198" height="47" as="geometry" />
        </mxCell>
        <mxCell id="ERN3U17185KaFVGdUrSm-24" value="&lt;u&gt;pf: ProgramaDeFormacion&lt;/u&gt;" style="rounded=0;whiteSpace=wrap;html=1;" parent="1" vertex="1">
          <mxGeometry x="325.5" y="4553" width="153" height="60.76" as="geometry" />
        </mxCell>
        <mxCell id="ERN3U17185KaFVGdUrSm-26" value="4*.2*:" style="text;html=1;strokeColor=none;fillColor=none;align=center;verticalAlign=middle;whiteSpace=wrap;rounded=0;" parent="1" vertex="1">
          <mxGeometry x="301" y="4507" width="40" height="20" as="geometry" />
        </mxCell>
        <mxCell id="ERN3U17185KaFVGdUrSm-27" value="existe:= esProgFormacion(progFormacion): bool" style="text;html=1;strokeColor=none;fillColor=none;align=center;verticalAlign=middle;whiteSpace=wrap;rounded=0;" parent="1" vertex="1">
          <mxGeometry x="359" y="4517" width="278" height="21" as="geometry" />
        </mxCell>
        <mxCell id="ERN3U17185KaFVGdUrSm-28" style="edgeStyle=orthogonalEdgeStyle;rounded=0;orthogonalLoop=1;jettySize=auto;html=1;exitX=1;exitY=0.5;exitDx=0;exitDy=0;entryX=0.75;entryY=1;entryDx=0;entryDy=0;strokeWidth=1;" parent="1" source="ERN3U17185KaFVGdUrSm-24" target="ERN3U17185KaFVGdUrSm-24" edge="1">
          <mxGeometry relative="1" as="geometry" />
        </mxCell>
        <mxCell id="ERN3U17185KaFVGdUrSm-29" value="4*.2*.1* nomProg:= getNombre(): string" style="text;html=1;strokeColor=none;fillColor=none;align=center;verticalAlign=middle;whiteSpace=wrap;rounded=0;" parent="1" vertex="1">
          <mxGeometry x="505.5" y="4613.76" width="221.5" height="18" as="geometry" />
        </mxCell>
        <mxCell id="ERN3U17185KaFVGdUrSm-31" style="edgeStyle=orthogonalEdgeStyle;rounded=0;orthogonalLoop=1;jettySize=auto;html=1;exitX=0;exitY=0;exitDx=0;exitDy=0;exitPerimeter=0;entryX=0.999;entryY=0.115;entryDx=0;entryDy=0;entryPerimeter=0;strokeWidth=1;dashed=1;" parent="1" source="ERN3U17185KaFVGdUrSm-30" target="ERN3U17185KaFVGdUrSm-24" edge="1">
          <mxGeometry relative="1" as="geometry">
            <Array as="points">
              <mxPoint x="506" y="4553" />
              <mxPoint x="506" y="4560" />
            </Array>
          </mxGeometry>
        </mxCell>
        <mxCell id="ERN3U17185KaFVGdUrSm-30" value="return: nomProg==progFormacion" style="shape=note;whiteSpace=wrap;html=1;size=14;verticalAlign=top;align=left;spacingTop=-6;" parent="1" vertex="1">
          <mxGeometry x="532.5" y="4553" width="205" height="47.12" as="geometry" />
        </mxCell>
        <mxCell id="lOrDqN2-XtBd8qI9W4t5-1" value="" style="rounded=0;whiteSpace=wrap;html=1;" vertex="1" parent="1">
          <mxGeometry x="1512" y="7608" width="132" height="60" as="geometry" />
        </mxCell>
        <mxCell id="lOrDqN2-XtBd8qI9W4t5-2" value="" style="rounded=0;whiteSpace=wrap;html=1;" vertex="1" parent="1">
          <mxGeometry x="1460.532361845129" y="7411.652941176471" width="120" height="60" as="geometry" />
        </mxCell>
        <mxCell id="lOrDqN2-XtBd8qI9W4t5-3" value="&lt;u&gt;:Curso&lt;/u&gt;" style="rounded=0;whiteSpace=wrap;html=1;" vertex="1" parent="1">
          <mxGeometry x="787.9969959214154" y="7679.001764705883" width="120" height="60" as="geometry" />
        </mxCell>
        <mxCell id="lOrDqN2-XtBd8qI9W4t5-4" value="" style="rounded=0;whiteSpace=wrap;html=1;" vertex="1" parent="1">
          <mxGeometry x="731" y="7173" width="137" height="60" as="geometry" />
        </mxCell>
        <mxCell id="lOrDqN2-XtBd8qI9W4t5-5" value="" style="rounded=0;whiteSpace=wrap;html=1;" vertex="1" parent="1">
          <mxGeometry x="1489.0015311925551" y="6202.004705882353" width="120" height="60" as="geometry" />
        </mxCell>
        <mxCell id="lOrDqN2-XtBd8qI9W4t5-6" value="&lt;u&gt;:Curso&lt;/u&gt;" style="rounded=0;whiteSpace=wrap;html=1;" vertex="1" parent="1">
          <mxGeometry x="849.9972464425226" y="6524.004285714285" width="120" height="60" as="geometry" />
        </mxCell>
        <mxCell id="lOrDqN2-XtBd8qI9W4t5-7" value="" style="rounded=0;whiteSpace=wrap;html=1;" vertex="1" parent="1">
          <mxGeometry x="588" y="6726" width="120" height="60" as="geometry" />
        </mxCell>
        <mxCell id="lOrDqN2-XtBd8qI9W4t5-8" value="&lt;u&gt;:Edicion&lt;/u&gt;" style="rounded=0;whiteSpace=wrap;html=1;" vertex="1" parent="1">
          <mxGeometry x="794.9984350585937" y="5386.001428571429" width="120" height="60" as="geometry" />
        </mxCell>
        <mxCell id="lOrDqN2-XtBd8qI9W4t5-9" value="" style="rounded=0;whiteSpace=wrap;html=1;" vertex="1" parent="1">
          <mxGeometry x="455" y="4946" width="120" height="60" as="geometry" />
        </mxCell>
        <mxCell id="lOrDqN2-XtBd8qI9W4t5-10" value="&lt;u&gt;:Instituto&lt;/u&gt;" style="rounded=0;whiteSpace=wrap;html=1;" vertex="1" parent="1">
          <mxGeometry x="801.0036755371094" y="4791" width="120" height="60" as="geometry" />
        </mxCell>
        <mxCell id="lOrDqN2-XtBd8qI9W4t5-11" value="&lt;font style=&quot;font-size: 35px&quot;&gt;&lt;b&gt;Alta de Edicion de Curso&lt;/b&gt;&lt;/font&gt;" style="text;html=1;align=center;verticalAlign=middle;resizable=0;points=[];autosize=1;" vertex="1" parent="1">
          <mxGeometry x="73" y="4717" width="424" height="25" as="geometry" />
        </mxCell>
        <mxCell id="lOrDqN2-XtBd8qI9W4t5-12" value="&amp;nbsp;ingresarInstituto(instituto: string): set(string)" style="text;html=1;strokeColor=none;fillColor=none;align=center;verticalAlign=middle;whiteSpace=wrap;rounded=0;" vertex="1" parent="1">
          <mxGeometry x="94" y="4805" width="249" height="20" as="geometry" />
        </mxCell>
        <mxCell id="lOrDqN2-XtBd8qI9W4t5-13" style="edgeStyle=orthogonalEdgeStyle;rounded=0;orthogonalLoop=1;jettySize=auto;html=1;exitX=0;exitY=0.5;exitDx=0;exitDy=0;startArrow=classic;startFill=1;endArrow=none;endFill=0;" edge="1" parent="1" source="lOrDqN2-XtBd8qI9W4t5-16">
          <mxGeometry relative="1" as="geometry">
            <mxPoint x="95.11691792805959" y="4830.833333333334" as="targetPoint" />
          </mxGeometry>
        </mxCell>
        <mxCell id="lOrDqN2-XtBd8qI9W4t5-14" style="edgeStyle=orthogonalEdgeStyle;rounded=0;orthogonalLoop=1;jettySize=auto;html=1;exitX=1;exitY=0.5;exitDx=0;exitDy=0;startArrow=none;startFill=0;endArrow=classic;endFill=1;" edge="1" parent="1" source="lOrDqN2-XtBd8qI9W4t5-16" target="lOrDqN2-XtBd8qI9W4t5-17">
          <mxGeometry relative="1" as="geometry">
            <mxPoint x="791.6736755371094" y="4831" as="targetPoint" />
          </mxGeometry>
        </mxCell>
        <mxCell id="lOrDqN2-XtBd8qI9W4t5-15" style="edgeStyle=orthogonalEdgeStyle;rounded=0;orthogonalLoop=1;jettySize=auto;html=1;exitX=0.25;exitY=1;exitDx=0;exitDy=0;startArrow=none;startFill=0;endArrow=classic;endFill=1;" edge="1" parent="1" source="lOrDqN2-XtBd8qI9W4t5-16" target="lOrDqN2-XtBd8qI9W4t5-23">
          <mxGeometry relative="1" as="geometry">
            <mxPoint x="122.34149528952207" y="4967.271297679228" as="targetPoint" />
          </mxGeometry>
        </mxCell>
        <mxCell id="lOrDqN2-XtBd8qI9W4t5-16" value="&lt;u&gt;:ControladorAltaDeEdicionDeCurso&lt;/u&gt;" style="rounded=0;whiteSpace=wrap;html=1;" vertex="1" parent="1">
          <mxGeometry x="352" y="4801" width="203" height="60" as="geometry" />
        </mxCell>
        <mxCell id="lOrDqN2-XtBd8qI9W4t5-17" value="&lt;u&gt;:Instituto&lt;/u&gt;" style="rounded=0;whiteSpace=wrap;html=1;" vertex="1" parent="1">
          <mxGeometry x="793.0036755371094" y="4801" width="120" height="60" as="geometry" />
        </mxCell>
        <mxCell id="lOrDqN2-XtBd8qI9W4t5-18" value="1:" style="text;html=1;align=center;verticalAlign=middle;resizable=0;points=[];autosize=1;" vertex="1" parent="1">
          <mxGeometry x="560" y="4798" width="20" height="17" as="geometry" />
        </mxCell>
        <mxCell id="lOrDqN2-XtBd8qI9W4t5-19" value="i := find(instituto)" style="text;html=1;align=center;verticalAlign=middle;resizable=0;points=[];autosize=1;" vertex="1" parent="1">
          <mxGeometry x="623" y="4806.5" width="98" height="17" as="geometry" />
        </mxCell>
        <mxCell id="lOrDqN2-XtBd8qI9W4t5-20" value="&amp;lt;&amp;lt;global&amp;gt;&amp;gt;" style="text;html=1;align=center;verticalAlign=middle;resizable=0;points=[];autosize=1;" vertex="1" parent="1">
          <mxGeometry x="714" y="4844" width="70" height="17" as="geometry" />
        </mxCell>
        <mxCell id="lOrDqN2-XtBd8qI9W4t5-21" style="edgeStyle=orthogonalEdgeStyle;rounded=0;orthogonalLoop=1;jettySize=auto;html=1;exitX=1;exitY=0.5;exitDx=0;exitDy=0;startArrow=none;startFill=0;endArrow=classic;endFill=1;" edge="1" parent="1" source="lOrDqN2-XtBd8qI9W4t5-23" target="lOrDqN2-XtBd8qI9W4t5-26">
          <mxGeometry relative="1" as="geometry">
            <mxPoint x="486" y="4986" as="targetPoint" />
            <Array as="points">
              <mxPoint x="337" y="4987" />
            </Array>
          </mxGeometry>
        </mxCell>
        <mxCell id="lOrDqN2-XtBd8qI9W4t5-22" style="edgeStyle=orthogonalEdgeStyle;rounded=0;orthogonalLoop=1;jettySize=auto;html=1;exitX=0.5;exitY=1;exitDx=0;exitDy=0;startArrow=none;startFill=0;endArrow=classic;endFill=1;" edge="1" parent="1" source="lOrDqN2-XtBd8qI9W4t5-23" target="lOrDqN2-XtBd8qI9W4t5-31">
          <mxGeometry relative="1" as="geometry">
            <mxPoint x="489.6618006089154" y="5188.186286477481" as="targetPoint" />
            <Array as="points">
              <mxPoint x="127" y="5153" />
              <mxPoint x="523" y="5153" />
            </Array>
          </mxGeometry>
        </mxCell>
        <mxCell id="lOrDqN2-XtBd8qI9W4t5-23" value="&lt;u&gt;i: Instituto&lt;/u&gt;" style="rounded=0;whiteSpace=wrap;html=1;" vertex="1" parent="1">
          <mxGeometry x="67.00149528952207" y="4957.001297679228" width="120" height="60" as="geometry" />
        </mxCell>
        <mxCell id="lOrDqN2-XtBd8qI9W4t5-24" value="2:" style="text;html=1;align=center;verticalAlign=middle;resizable=0;points=[];autosize=1;" vertex="1" parent="1">
          <mxGeometry x="378" y="4864" width="20" height="17" as="geometry" />
        </mxCell>
        <mxCell id="lOrDqN2-XtBd8qI9W4t5-25" value="obtenerCursos(): set(string)" style="text;html=1;align=center;verticalAlign=middle;resizable=0;points=[];autosize=1;" vertex="1" parent="1">
          <mxGeometry x="151" y="4886" width="157" height="17" as="geometry" />
        </mxCell>
        <mxCell id="lOrDqN2-XtBd8qI9W4t5-26" value="&lt;u&gt;:Curso&lt;/u&gt;" style="rounded=0;whiteSpace=wrap;html=1;" vertex="1" parent="1">
          <mxGeometry x="444" y="4957" width="120" height="60" as="geometry" />
        </mxCell>
        <mxCell id="lOrDqN2-XtBd8qI9W4t5-27" value="&amp;lt;&amp;lt;local&amp;gt;&amp;gt;" style="text;html=1;align=center;verticalAlign=middle;resizable=0;points=[];autosize=1;" vertex="1" parent="1">
          <mxGeometry x="55" y="4934" width="62" height="17" as="geometry" />
        </mxCell>
        <mxCell id="lOrDqN2-XtBd8qI9W4t5-28" value="&amp;lt;&amp;lt;association&amp;gt;&amp;gt;" style="text;html=1;align=center;verticalAlign=middle;resizable=0;points=[];autosize=1;" vertex="1" parent="1">
          <mxGeometry x="343" y="4997" width="98" height="17" as="geometry" />
        </mxCell>
        <mxCell id="lOrDqN2-XtBd8qI9W4t5-29" value="2.1*[foreach]:" style="text;html=1;align=center;verticalAlign=middle;resizable=0;points=[];autosize=1;" vertex="1" parent="1">
          <mxGeometry x="189" y="4957" width="81" height="17" as="geometry" />
        </mxCell>
        <mxCell id="lOrDqN2-XtBd8qI9W4t5-30" value="c := next()" style="text;html=1;align=center;verticalAlign=middle;resizable=0;points=[];autosize=1;" vertex="1" parent="1">
          <mxGeometry x="301" y="4964" width="63" height="17" as="geometry" />
        </mxCell>
        <mxCell id="lOrDqN2-XtBd8qI9W4t5-31" value="&lt;u&gt;c: Curso&lt;/u&gt;" style="rounded=0;whiteSpace=wrap;html=1;" vertex="1" parent="1">
          <mxGeometry x="463.00180060891546" y="5122.996286477482" width="120" height="60" as="geometry" />
        </mxCell>
        <mxCell id="lOrDqN2-XtBd8qI9W4t5-32" value="2.2*:" style="text;html=1;align=center;verticalAlign=middle;resizable=0;points=[];autosize=1;" vertex="1" parent="1">
          <mxGeometry x="131" y="5022" width="34" height="17" as="geometry" />
        </mxCell>
        <mxCell id="lOrDqN2-XtBd8qI9W4t5-33" value="n := getNombre()" style="text;html=1;align=center;verticalAlign=middle;resizable=0;points=[];autosize=1;" vertex="1" parent="1">
          <mxGeometry x="231" y="5123" width="101" height="17" as="geometry" />
        </mxCell>
        <mxCell id="lOrDqN2-XtBd8qI9W4t5-34" value="&amp;lt;&amp;lt;local&amp;gt;&amp;gt;" style="text;html=1;align=center;verticalAlign=middle;resizable=0;points=[];autosize=1;" vertex="1" parent="1">
          <mxGeometry x="398" y="5159" width="62" height="17" as="geometry" />
        </mxCell>
        <mxCell id="lOrDqN2-XtBd8qI9W4t5-35" value="" style="endArrow=none;dashed=1;html=1;dashPattern=1 3;strokeWidth=2;exitX=0.25;exitY=1;exitDx=0;exitDy=0;" edge="1" parent="1" source="lOrDqN2-XtBd8qI9W4t5-23" target="lOrDqN2-XtBd8qI9W4t5-36">
          <mxGeometry width="50" height="50" relative="1" as="geometry">
            <mxPoint x="74" y="5189" as="sourcePoint" />
            <mxPoint x="97.79069767441842" y="5057" as="targetPoint" />
          </mxGeometry>
        </mxCell>
        <mxCell id="lOrDqN2-XtBd8qI9W4t5-36" value="Construye y retorna un set(string) con los nombres obtenidos." style="shape=note;whiteSpace=wrap;html=1;backgroundOutline=1;darkOpacity=0.05;size=17;" vertex="1" parent="1">
          <mxGeometry x="60" y="5176" width="121" height="100" as="geometry" />
        </mxCell>
        <mxCell id="lOrDqN2-XtBd8qI9W4t5-37" value="&lt;u&gt;:ControladorAltaDeEdicionDeCurso&lt;/u&gt;" style="rounded=0;whiteSpace=wrap;html=1;" vertex="1" parent="1">
          <mxGeometry x="1183" y="4791" width="203" height="60" as="geometry" />
        </mxCell>
        <mxCell id="lOrDqN2-XtBd8qI9W4t5-38" value="" style="endArrow=classic;html=1;" edge="1" parent="1">
          <mxGeometry width="50" height="50" relative="1" as="geometry">
            <mxPoint x="1000.9999999999991" y="4819" as="sourcePoint" />
            <mxPoint x="1183.000000000001" y="4819" as="targetPoint" />
          </mxGeometry>
        </mxCell>
        <mxCell id="lOrDqN2-XtBd8qI9W4t5-39" value="&lt;br&gt;seleccionarCurso(curso: string)" style="text;html=1;strokeColor=none;fillColor=none;align=center;verticalAlign=middle;whiteSpace=wrap;rounded=0;" vertex="1" parent="1">
          <mxGeometry x="998" y="4789" width="179" height="20" as="geometry" />
        </mxCell>
        <mxCell id="lOrDqN2-XtBd8qI9W4t5-40" value="" style="endArrow=none;dashed=1;html=1;dashPattern=1 3;strokeWidth=2;exitX=0.75;exitY=1;exitDx=0;exitDy=0;" edge="1" parent="1" source="lOrDqN2-XtBd8qI9W4t5-37" target="lOrDqN2-XtBd8qI9W4t5-41">
          <mxGeometry width="50" height="50" relative="1" as="geometry">
            <mxPoint x="1280" y="4901" as="sourcePoint" />
            <mxPoint x="1330" y="4851" as="targetPoint" />
          </mxGeometry>
        </mxCell>
        <mxCell id="lOrDqN2-XtBd8qI9W4t5-41" value="El sistema recuerda el curso ingresado." style="shape=note;whiteSpace=wrap;html=1;backgroundOutline=1;darkOpacity=0.05;size=16;" vertex="1" parent="1">
          <mxGeometry x="1382" y="4891" width="80" height="100" as="geometry" />
        </mxCell>
        <mxCell id="lOrDqN2-XtBd8qI9W4t5-42" value="existe:= ingresarDtEdicion(edicion: DtEdicion): bool" style="text;html=1;strokeColor=none;fillColor=none;align=center;verticalAlign=middle;whiteSpace=wrap;rounded=0;" vertex="1" parent="1">
          <mxGeometry x="88" y="5403" width="295" height="20" as="geometry" />
        </mxCell>
        <mxCell id="lOrDqN2-XtBd8qI9W4t5-43" style="edgeStyle=orthogonalEdgeStyle;rounded=0;orthogonalLoop=1;jettySize=auto;html=1;exitX=0;exitY=0.5;exitDx=0;exitDy=0;startArrow=classic;startFill=1;endArrow=none;endFill=0;" edge="1" parent="1" source="lOrDqN2-XtBd8qI9W4t5-46">
          <mxGeometry relative="1" as="geometry">
            <mxPoint x="66.29561070033469" y="5425.571428571428" as="targetPoint" />
          </mxGeometry>
        </mxCell>
        <mxCell id="lOrDqN2-XtBd8qI9W4t5-44" style="edgeStyle=orthogonalEdgeStyle;rounded=0;orthogonalLoop=1;jettySize=auto;html=1;exitX=1;exitY=0.5;exitDx=0;exitDy=0;startArrow=none;startFill=0;endArrow=classic;endFill=1;" edge="1" parent="1" source="lOrDqN2-XtBd8qI9W4t5-46" target="lOrDqN2-XtBd8qI9W4t5-47">
          <mxGeometry relative="1" as="geometry">
            <mxPoint x="764.7084350585938" y="5425.571428571428" as="targetPoint" />
          </mxGeometry>
        </mxCell>
        <mxCell id="lOrDqN2-XtBd8qI9W4t5-45" style="edgeStyle=orthogonalEdgeStyle;rounded=0;orthogonalLoop=1;jettySize=auto;html=1;exitX=0.5;exitY=1;exitDx=0;exitDy=0;startArrow=none;startFill=0;endArrow=classic;endFill=1;" edge="1" parent="1" source="lOrDqN2-XtBd8qI9W4t5-46" target="lOrDqN2-XtBd8qI9W4t5-51">
          <mxGeometry relative="1" as="geometry">
            <mxPoint x="808.3403015136719" y="5634.791778564453" as="targetPoint" />
            <Array as="points">
              <mxPoint x="478" y="5565" />
            </Array>
          </mxGeometry>
        </mxCell>
        <mxCell id="lOrDqN2-XtBd8qI9W4t5-46" value="&lt;u&gt;:ControladorAltaDeEdicionDeCurso&lt;/u&gt;" style="rounded=0;whiteSpace=wrap;html=1;" vertex="1" parent="1">
          <mxGeometry x="378" y="5396" width="200" height="60" as="geometry" />
        </mxCell>
        <mxCell id="lOrDqN2-XtBd8qI9W4t5-47" value="&lt;u&gt;:Edicion&lt;/u&gt;" style="rounded=0;whiteSpace=wrap;html=1;" vertex="1" parent="1">
          <mxGeometry x="787.9984350585937" y="5396.001428571429" width="120" height="60" as="geometry" />
        </mxCell>
        <mxCell id="lOrDqN2-XtBd8qI9W4t5-48" value="1*[foreach]:" style="text;html=1;align=center;verticalAlign=middle;resizable=0;points=[];autosize=1;" vertex="1" parent="1">
          <mxGeometry x="580" y="5400" width="71" height="17" as="geometry" />
        </mxCell>
        <mxCell id="lOrDqN2-XtBd8qI9W4t5-49" value="e := next()" style="text;html=1;align=center;verticalAlign=middle;resizable=0;points=[];autosize=1;" vertex="1" parent="1">
          <mxGeometry x="679" y="5403" width="64" height="17" as="geometry" />
        </mxCell>
        <mxCell id="lOrDqN2-XtBd8qI9W4t5-50" style="edgeStyle=orthogonalEdgeStyle;rounded=0;orthogonalLoop=1;jettySize=auto;html=1;exitX=0.75;exitY=0;exitDx=0;exitDy=0;startArrow=none;startFill=0;endArrow=classic;endFill=1;" edge="1" parent="1" source="lOrDqN2-XtBd8qI9W4t5-51">
          <mxGeometry relative="1" as="geometry">
            <mxPoint x="891.3529411764694" y="5597.336677102481" as="targetPoint" />
          </mxGeometry>
        </mxCell>
        <mxCell id="lOrDqN2-XtBd8qI9W4t5-51" value="&lt;u&gt;e: Edicion&lt;/u&gt;" style="rounded=0;whiteSpace=wrap;html=1;" vertex="1" parent="1">
          <mxGeometry x="801.0003015136718" y="5535.001778564453" width="120" height="60" as="geometry" />
        </mxCell>
        <mxCell id="lOrDqN2-XtBd8qI9W4t5-52" value="2*:" style="text;html=1;align=center;verticalAlign=middle;resizable=0;points=[];autosize=1;" vertex="1" parent="1">
          <mxGeometry x="481" y="5463" width="24" height="17" as="geometry" />
        </mxCell>
        <mxCell id="lOrDqN2-XtBd8qI9W4t5-53" value="existe := existeEdicion(edicion): bool" style="text;html=1;align=center;verticalAlign=middle;resizable=0;points=[];autosize=1;" vertex="1" parent="1">
          <mxGeometry x="545" y="5540" width="204" height="17" as="geometry" />
        </mxCell>
        <mxCell id="lOrDqN2-XtBd8qI9W4t5-54" value="&amp;lt;&amp;lt;global&amp;gt;&amp;gt;" style="text;html=1;align=center;verticalAlign=middle;resizable=0;points=[];autosize=1;" vertex="1" parent="1">
          <mxGeometry x="707" y="5435" width="70" height="17" as="geometry" />
        </mxCell>
        <mxCell id="lOrDqN2-XtBd8qI9W4t5-55" value="&amp;lt;&amp;lt;local&amp;gt;&amp;gt;" style="text;html=1;align=center;verticalAlign=middle;resizable=0;points=[];autosize=1;" vertex="1" parent="1">
          <mxGeometry x="726" y="5575" width="62" height="17" as="geometry" />
        </mxCell>
        <mxCell id="lOrDqN2-XtBd8qI9W4t5-56" value="2.1*: n := getNombre(): string" style="text;html=1;align=center;verticalAlign=middle;resizable=0;points=[];autosize=1;" vertex="1" parent="1">
          <mxGeometry x="948" y="5550" width="164" height="17" as="geometry" />
        </mxCell>
        <mxCell id="lOrDqN2-XtBd8qI9W4t5-57" value="" style="endArrow=none;dashed=1;html=1;dashPattern=1 3;strokeWidth=2;entryX=0.5;entryY=1;entryDx=0;entryDy=0;exitX=0;exitY=0;exitDx=65;exitDy=15;exitPerimeter=0;" edge="1" parent="1" source="lOrDqN2-XtBd8qI9W4t5-58" target="lOrDqN2-XtBd8qI9W4t5-51">
          <mxGeometry width="50" height="50" relative="1" as="geometry">
            <mxPoint x="788" y="5684" as="sourcePoint" />
            <mxPoint x="838" y="5634" as="targetPoint" />
          </mxGeometry>
        </mxCell>
        <mxCell id="lOrDqN2-XtBd8qI9W4t5-58" value="return:&lt;br&gt;n == edicion.nombre" style="shape=note;whiteSpace=wrap;html=1;backgroundOutline=1;darkOpacity=0.05;size=13;" vertex="1" parent="1">
          <mxGeometry x="721" y="5650" width="104" height="100" as="geometry" />
        </mxCell>
        <mxCell id="lOrDqN2-XtBd8qI9W4t5-59" value="" style="rounded=0;whiteSpace=wrap;html=1;" vertex="1" parent="1">
          <mxGeometry x="1447.000362548828" y="5230.001717529297" width="120" height="60" as="geometry" />
        </mxCell>
        <mxCell id="lOrDqN2-XtBd8qI9W4t5-60" style="edgeStyle=orthogonalEdgeStyle;rounded=0;orthogonalLoop=1;jettySize=auto;html=1;exitX=0.75;exitY=1;exitDx=0;exitDy=0;" edge="1" parent="1" source="lOrDqN2-XtBd8qI9W4t5-61" target="lOrDqN2-XtBd8qI9W4t5-68">
          <mxGeometry relative="1" as="geometry">
            <mxPoint x="1432.3403625488281" y="5239.791717529297" as="targetPoint" />
            <Array as="points">
              <mxPoint x="1189" y="5252" />
            </Array>
          </mxGeometry>
        </mxCell>
        <mxCell id="lOrDqN2-XtBd8qI9W4t5-61" value="&lt;u&gt;:ControladorAltaDeEdicionDeCurso&lt;/u&gt;" style="rounded=0;whiteSpace=wrap;html=1;" vertex="1" parent="1">
          <mxGeometry x="1070.5" y="5073" width="193.5" height="60" as="geometry" />
        </mxCell>
        <mxCell id="lOrDqN2-XtBd8qI9W4t5-62" value="" style="endArrow=classic;html=1;" edge="1" parent="1">
          <mxGeometry width="50" height="50" relative="1" as="geometry">
            <mxPoint x="855" y="5100" as="sourcePoint" />
            <mxPoint x="1070.999999999999" y="5100" as="targetPoint" />
          </mxGeometry>
        </mxCell>
        <mxCell id="lOrDqN2-XtBd8qI9W4t5-63" value="confirmarAltaEdiciondeCurso()" style="text;html=1;strokeColor=none;fillColor=none;align=center;verticalAlign=middle;whiteSpace=wrap;rounded=0;" vertex="1" parent="1">
          <mxGeometry x="939" y="5073" width="40" height="20" as="geometry" />
        </mxCell>
        <mxCell id="lOrDqN2-XtBd8qI9W4t5-64" value="" style="endArrow=classic;html=1;" edge="1" parent="1">
          <mxGeometry width="50" height="50" relative="1" as="geometry">
            <mxPoint x="1267" y="5104" as="sourcePoint" />
            <mxPoint x="1449" y="5104" as="targetPoint" />
          </mxGeometry>
        </mxCell>
        <mxCell id="lOrDqN2-XtBd8qI9W4t5-65" value="1:" style="text;html=1;strokeColor=none;fillColor=none;align=center;verticalAlign=middle;whiteSpace=wrap;rounded=0;" vertex="1" parent="1">
          <mxGeometry x="1257" y="5073" width="40" height="20" as="geometry" />
        </mxCell>
        <mxCell id="lOrDqN2-XtBd8qI9W4t5-66" value="e := create(edicion)" style="text;html=1;strokeColor=none;fillColor=none;align=center;verticalAlign=middle;whiteSpace=wrap;rounded=0;" vertex="1" parent="1">
          <mxGeometry x="1320" y="5076" width="40" height="20" as="geometry" />
        </mxCell>
        <mxCell id="lOrDqN2-XtBd8qI9W4t5-67" value="&lt;u&gt;:Curso&lt;/u&gt;" style="rounded=0;whiteSpace=wrap;html=1;" vertex="1" parent="1">
          <mxGeometry x="1447" y="5073" width="120" height="60" as="geometry" />
        </mxCell>
        <mxCell id="lOrDqN2-XtBd8qI9W4t5-68" value="&lt;u&gt;:Edicion&lt;/u&gt;" style="rounded=0;whiteSpace=wrap;html=1;" vertex="1" parent="1">
          <mxGeometry x="1436.000362548828" y="5243.001717529297" width="120" height="60" as="geometry" />
        </mxCell>
        <mxCell id="lOrDqN2-XtBd8qI9W4t5-69" value="2:" style="text;html=1;align=center;verticalAlign=middle;resizable=0;points=[];autosize=1;" vertex="1" parent="1">
          <mxGeometry x="1196" y="5141" width="20" height="17" as="geometry" />
        </mxCell>
        <mxCell id="lOrDqN2-XtBd8qI9W4t5-70" value="add(e)" style="text;html=1;align=center;verticalAlign=middle;resizable=0;points=[];autosize=1;" vertex="1" parent="1">
          <mxGeometry x="1297" y="5226" width="44" height="17" as="geometry" />
        </mxCell>
        <mxCell id="lOrDqN2-XtBd8qI9W4t5-71" value="&amp;lt;&amp;lt;local&amp;gt;&amp;gt;" style="text;html=1;align=center;verticalAlign=middle;resizable=0;points=[];autosize=1;" vertex="1" parent="1">
          <mxGeometry x="1374" y="5111" width="62" height="17" as="geometry" />
        </mxCell>
        <mxCell id="lOrDqN2-XtBd8qI9W4t5-72" value="&amp;lt;&amp;lt;global&amp;gt;&amp;gt;" style="text;html=1;align=center;verticalAlign=middle;resizable=0;points=[];autosize=1;" vertex="1" parent="1">
          <mxGeometry x="1360" y="5259" width="70" height="17" as="geometry" />
        </mxCell>
        <mxCell id="lOrDqN2-XtBd8qI9W4t5-73" value="" style="endArrow=none;dashed=1;html=1;dashPattern=1 3;strokeWidth=2;exitX=0.25;exitY=1;exitDx=0;exitDy=0;entryX=0;entryY=0;entryDx=65;entryDy=15;entryPerimeter=0;" edge="1" parent="1" source="lOrDqN2-XtBd8qI9W4t5-61" target="lOrDqN2-XtBd8qI9W4t5-74">
          <mxGeometry width="50" height="50" relative="1" as="geometry">
            <mxPoint x="1079.5" y="5183" as="sourcePoint" />
            <mxPoint x="1129.5" y="5133" as="targetPoint" />
          </mxGeometry>
        </mxCell>
        <mxCell id="lOrDqN2-XtBd8qI9W4t5-74" value="El sistema libera la memoria." style="shape=note;whiteSpace=wrap;html=1;backgroundOutline=1;darkOpacity=0.05;size=17;" vertex="1" parent="1">
          <mxGeometry x="1015.9999999999998" y="5176" width="80" height="100" as="geometry" />
        </mxCell>
        <mxCell id="lOrDqN2-XtBd8qI9W4t5-75" value="&lt;u&gt;:ControladorAltaDeEdicionDeCurso&lt;/u&gt;" style="rounded=0;whiteSpace=wrap;html=1;" vertex="1" parent="1">
          <mxGeometry x="1405" y="5502" width="199" height="60" as="geometry" />
        </mxCell>
        <mxCell id="lOrDqN2-XtBd8qI9W4t5-76" value="" style="endArrow=classic;html=1;" edge="1" parent="1">
          <mxGeometry width="50" height="50" relative="1" as="geometry">
            <mxPoint x="1224" y="5534" as="sourcePoint" />
            <mxPoint x="1404" y="5534" as="targetPoint" />
          </mxGeometry>
        </mxCell>
        <mxCell id="lOrDqN2-XtBd8qI9W4t5-77" value="cancelarAltaEdiciondeCurso()" style="text;html=1;align=center;verticalAlign=middle;resizable=0;points=[];autosize=1;" vertex="1" parent="1">
          <mxGeometry x="1223" y="5511" width="169" height="17" as="geometry" />
        </mxCell>
        <mxCell id="lOrDqN2-XtBd8qI9W4t5-78" style="edgeStyle=orthogonalEdgeStyle;rounded=0;orthogonalLoop=1;jettySize=auto;html=1;exitX=0.5;exitY=0;exitDx=0;exitDy=0;exitPerimeter=0;entryX=0.25;entryY=1;entryDx=0;entryDy=0;dashed=1;endArrow=none;endFill=0;" edge="1" parent="1" source="lOrDqN2-XtBd8qI9W4t5-79" target="lOrDqN2-XtBd8qI9W4t5-75">
          <mxGeometry relative="1" as="geometry" />
        </mxCell>
        <mxCell id="lOrDqN2-XtBd8qI9W4t5-79" value="El sistema libera la memoria." style="shape=note;whiteSpace=wrap;html=1;backgroundOutline=1;darkOpacity=0.05;size=17;" vertex="1" parent="1">
          <mxGeometry x="1372.9999999999998" y="5632" width="80" height="100" as="geometry" />
        </mxCell>
        <mxCell id="lOrDqN2-XtBd8qI9W4t5-80" value="&lt;font style=&quot;font-size: 35px&quot;&gt;&lt;b&gt;Consulta de Edicion de Curso&lt;/b&gt;&lt;/font&gt;" style="text;html=1;align=center;verticalAlign=middle;resizable=0;points=[];autosize=1;" vertex="1" parent="1">
          <mxGeometry x="60" y="5902" width="508" height="25" as="geometry" />
        </mxCell>
        <mxCell id="lOrDqN2-XtBd8qI9W4t5-81" value="" style="rounded=0;whiteSpace=wrap;html=1;" vertex="1" parent="1">
          <mxGeometry x="488" y="6112" width="120" height="60" as="geometry" />
        </mxCell>
        <mxCell id="lOrDqN2-XtBd8qI9W4t5-82" value="&lt;u&gt;:Instituto&lt;/u&gt;" style="rounded=0;whiteSpace=wrap;html=1;" vertex="1" parent="1">
          <mxGeometry x="834.0036755371094" y="5957" width="120" height="60" as="geometry" />
        </mxCell>
        <mxCell id="lOrDqN2-XtBd8qI9W4t5-83" value="&amp;nbsp;ingresarInstituto(instituto: string): set(string)" style="text;html=1;strokeColor=none;fillColor=none;align=center;verticalAlign=middle;whiteSpace=wrap;rounded=0;" vertex="1" parent="1">
          <mxGeometry x="127" y="5971" width="249" height="20" as="geometry" />
        </mxCell>
        <mxCell id="lOrDqN2-XtBd8qI9W4t5-84" style="edgeStyle=orthogonalEdgeStyle;rounded=0;orthogonalLoop=1;jettySize=auto;html=1;exitX=0;exitY=0.5;exitDx=0;exitDy=0;startArrow=classic;startFill=1;endArrow=none;endFill=0;" edge="1" parent="1" source="lOrDqN2-XtBd8qI9W4t5-87">
          <mxGeometry relative="1" as="geometry">
            <mxPoint x="128.1169179280596" y="5996.833333333334" as="targetPoint" />
          </mxGeometry>
        </mxCell>
        <mxCell id="lOrDqN2-XtBd8qI9W4t5-85" style="edgeStyle=orthogonalEdgeStyle;rounded=0;orthogonalLoop=1;jettySize=auto;html=1;exitX=1;exitY=0.5;exitDx=0;exitDy=0;startArrow=none;startFill=0;endArrow=classic;endFill=1;" edge="1" parent="1" source="lOrDqN2-XtBd8qI9W4t5-87" target="lOrDqN2-XtBd8qI9W4t5-88">
          <mxGeometry relative="1" as="geometry">
            <mxPoint x="824.6736755371094" y="5997" as="targetPoint" />
          </mxGeometry>
        </mxCell>
        <mxCell id="lOrDqN2-XtBd8qI9W4t5-86" style="edgeStyle=orthogonalEdgeStyle;rounded=0;orthogonalLoop=1;jettySize=auto;html=1;exitX=0.25;exitY=1;exitDx=0;exitDy=0;startArrow=none;startFill=0;endArrow=classic;endFill=1;" edge="1" parent="1" source="lOrDqN2-XtBd8qI9W4t5-87" target="lOrDqN2-XtBd8qI9W4t5-94">
          <mxGeometry relative="1" as="geometry">
            <mxPoint x="155.34149528952207" y="6133.271297679228" as="targetPoint" />
          </mxGeometry>
        </mxCell>
        <mxCell id="lOrDqN2-XtBd8qI9W4t5-87" value="&lt;u&gt;:ControladorConsultaEdiciondeCurso&lt;/u&gt;" style="rounded=0;whiteSpace=wrap;html=1;" vertex="1" parent="1">
          <mxGeometry x="385" y="5967" width="203" height="60" as="geometry" />
        </mxCell>
        <mxCell id="lOrDqN2-XtBd8qI9W4t5-88" value="&lt;u&gt;:Instituto&lt;/u&gt;" style="rounded=0;whiteSpace=wrap;html=1;" vertex="1" parent="1">
          <mxGeometry x="826.0036755371094" y="5967" width="120" height="60" as="geometry" />
        </mxCell>
        <mxCell id="lOrDqN2-XtBd8qI9W4t5-89" value="1:" style="text;html=1;align=center;verticalAlign=middle;resizable=0;points=[];autosize=1;" vertex="1" parent="1">
          <mxGeometry x="593" y="5964" width="20" height="17" as="geometry" />
        </mxCell>
        <mxCell id="lOrDqN2-XtBd8qI9W4t5-90" value="i := find(instituto)" style="text;html=1;align=center;verticalAlign=middle;resizable=0;points=[];autosize=1;" vertex="1" parent="1">
          <mxGeometry x="656" y="5972.5" width="98" height="17" as="geometry" />
        </mxCell>
        <mxCell id="lOrDqN2-XtBd8qI9W4t5-91" value="&amp;lt;&amp;lt;global&amp;gt;&amp;gt;" style="text;html=1;align=center;verticalAlign=middle;resizable=0;points=[];autosize=1;" vertex="1" parent="1">
          <mxGeometry x="747" y="6010" width="70" height="17" as="geometry" />
        </mxCell>
        <mxCell id="lOrDqN2-XtBd8qI9W4t5-92" style="edgeStyle=orthogonalEdgeStyle;rounded=0;orthogonalLoop=1;jettySize=auto;html=1;exitX=1;exitY=0.5;exitDx=0;exitDy=0;startArrow=none;startFill=0;endArrow=classic;endFill=1;" edge="1" parent="1" source="lOrDqN2-XtBd8qI9W4t5-94" target="lOrDqN2-XtBd8qI9W4t5-97">
          <mxGeometry relative="1" as="geometry">
            <mxPoint x="519" y="6152" as="targetPoint" />
            <Array as="points">
              <mxPoint x="370" y="6153" />
            </Array>
          </mxGeometry>
        </mxCell>
        <mxCell id="lOrDqN2-XtBd8qI9W4t5-93" style="edgeStyle=orthogonalEdgeStyle;rounded=0;orthogonalLoop=1;jettySize=auto;html=1;exitX=0.5;exitY=1;exitDx=0;exitDy=0;startArrow=none;startFill=0;endArrow=classic;endFill=1;" edge="1" parent="1" source="lOrDqN2-XtBd8qI9W4t5-94" target="lOrDqN2-XtBd8qI9W4t5-102">
          <mxGeometry relative="1" as="geometry">
            <mxPoint x="522.6618006089154" y="6354.186286477481" as="targetPoint" />
            <Array as="points">
              <mxPoint x="160" y="6319" />
              <mxPoint x="556" y="6319" />
            </Array>
          </mxGeometry>
        </mxCell>
        <mxCell id="lOrDqN2-XtBd8qI9W4t5-94" value="&lt;u&gt;i: Instituto&lt;/u&gt;" style="rounded=0;whiteSpace=wrap;html=1;" vertex="1" parent="1">
          <mxGeometry x="100.00149528952207" y="6123.001297679228" width="120" height="60" as="geometry" />
        </mxCell>
        <mxCell id="lOrDqN2-XtBd8qI9W4t5-95" value="2:" style="text;html=1;align=center;verticalAlign=middle;resizable=0;points=[];autosize=1;" vertex="1" parent="1">
          <mxGeometry x="411" y="6030" width="20" height="17" as="geometry" />
        </mxCell>
        <mxCell id="lOrDqN2-XtBd8qI9W4t5-96" value="obtenerCursos(): set(string)" style="text;html=1;align=center;verticalAlign=middle;resizable=0;points=[];autosize=1;" vertex="1" parent="1">
          <mxGeometry x="184" y="6052" width="157" height="17" as="geometry" />
        </mxCell>
        <mxCell id="lOrDqN2-XtBd8qI9W4t5-97" value="&lt;u&gt;:Curso&lt;/u&gt;" style="rounded=0;whiteSpace=wrap;html=1;" vertex="1" parent="1">
          <mxGeometry x="477" y="6123" width="120" height="60" as="geometry" />
        </mxCell>
        <mxCell id="lOrDqN2-XtBd8qI9W4t5-98" value="&amp;lt;&amp;lt;local&amp;gt;&amp;gt;" style="text;html=1;align=center;verticalAlign=middle;resizable=0;points=[];autosize=1;" vertex="1" parent="1">
          <mxGeometry x="88" y="6100" width="62" height="17" as="geometry" />
        </mxCell>
        <mxCell id="lOrDqN2-XtBd8qI9W4t5-99" value="&amp;lt;&amp;lt;association&amp;gt;&amp;gt;" style="text;html=1;align=center;verticalAlign=middle;resizable=0;points=[];autosize=1;" vertex="1" parent="1">
          <mxGeometry x="376" y="6163" width="98" height="17" as="geometry" />
        </mxCell>
        <mxCell id="lOrDqN2-XtBd8qI9W4t5-100" value="2.1*[foreach]:" style="text;html=1;align=center;verticalAlign=middle;resizable=0;points=[];autosize=1;" vertex="1" parent="1">
          <mxGeometry x="222" y="6123" width="81" height="17" as="geometry" />
        </mxCell>
        <mxCell id="lOrDqN2-XtBd8qI9W4t5-101" value="c := next()" style="text;html=1;align=center;verticalAlign=middle;resizable=0;points=[];autosize=1;" vertex="1" parent="1">
          <mxGeometry x="334" y="6130" width="63" height="17" as="geometry" />
        </mxCell>
        <mxCell id="lOrDqN2-XtBd8qI9W4t5-102" value="&lt;u&gt;c: Curso&lt;/u&gt;" style="rounded=0;whiteSpace=wrap;html=1;" vertex="1" parent="1">
          <mxGeometry x="496.00180060891546" y="6288.996286477482" width="120" height="60" as="geometry" />
        </mxCell>
        <mxCell id="lOrDqN2-XtBd8qI9W4t5-103" value="2.2*:" style="text;html=1;align=center;verticalAlign=middle;resizable=0;points=[];autosize=1;" vertex="1" parent="1">
          <mxGeometry x="164" y="6188" width="34" height="17" as="geometry" />
        </mxCell>
        <mxCell id="lOrDqN2-XtBd8qI9W4t5-104" value="n := getNombre()" style="text;html=1;align=center;verticalAlign=middle;resizable=0;points=[];autosize=1;" vertex="1" parent="1">
          <mxGeometry x="264" y="6289" width="101" height="17" as="geometry" />
        </mxCell>
        <mxCell id="lOrDqN2-XtBd8qI9W4t5-105" value="&amp;lt;&amp;lt;local&amp;gt;&amp;gt;" style="text;html=1;align=center;verticalAlign=middle;resizable=0;points=[];autosize=1;" vertex="1" parent="1">
          <mxGeometry x="431" y="6325" width="62" height="17" as="geometry" />
        </mxCell>
        <mxCell id="lOrDqN2-XtBd8qI9W4t5-106" value="" style="endArrow=none;dashed=1;html=1;dashPattern=1 3;strokeWidth=2;exitX=0.25;exitY=1;exitDx=0;exitDy=0;" edge="1" parent="1" source="lOrDqN2-XtBd8qI9W4t5-94" target="lOrDqN2-XtBd8qI9W4t5-107">
          <mxGeometry width="50" height="50" relative="1" as="geometry">
            <mxPoint x="107" y="6355" as="sourcePoint" />
            <mxPoint x="130.79069767441842" y="6223" as="targetPoint" />
          </mxGeometry>
        </mxCell>
        <mxCell id="lOrDqN2-XtBd8qI9W4t5-107" value="Construye y retorna un set(string) con los nombres obtenidos." style="shape=note;whiteSpace=wrap;html=1;backgroundOutline=1;darkOpacity=0.05;size=17;" vertex="1" parent="1">
          <mxGeometry x="93" y="6342" width="121" height="100" as="geometry" />
        </mxCell>
        <mxCell id="lOrDqN2-XtBd8qI9W4t5-108" value="ingresarCurso(curso: string): set(string)" style="text;html=1;strokeColor=none;fillColor=none;align=center;verticalAlign=middle;whiteSpace=wrap;rounded=0;" vertex="1" parent="1">
          <mxGeometry x="143" y="6533" width="239" height="20" as="geometry" />
        </mxCell>
        <mxCell id="lOrDqN2-XtBd8qI9W4t5-109" style="edgeStyle=orthogonalEdgeStyle;rounded=0;orthogonalLoop=1;jettySize=auto;html=1;exitX=1;exitY=0.5;exitDx=0;exitDy=0;startArrow=none;startFill=0;endArrow=classic;endFill=1;" edge="1" parent="1" source="lOrDqN2-XtBd8qI9W4t5-111" target="lOrDqN2-XtBd8qI9W4t5-114">
          <mxGeometry relative="1" as="geometry">
            <mxPoint x="853.5972464425226" y="6562.714285714286" as="targetPoint" />
          </mxGeometry>
        </mxCell>
        <mxCell id="lOrDqN2-XtBd8qI9W4t5-110" style="edgeStyle=orthogonalEdgeStyle;rounded=0;orthogonalLoop=1;jettySize=auto;html=1;exitX=0.25;exitY=1;exitDx=0;exitDy=0;startArrow=none;startFill=0;endArrow=classic;endFill=1;" edge="1" parent="1" source="lOrDqN2-XtBd8qI9W4t5-111" target="lOrDqN2-XtBd8qI9W4t5-120">
          <mxGeometry relative="1" as="geometry">
            <mxPoint x="195.56716918945312" y="6763.060241699219" as="targetPoint" />
          </mxGeometry>
        </mxCell>
        <mxCell id="lOrDqN2-XtBd8qI9W4t5-111" value="&lt;u&gt;:ControladorConsultaEdiciondeCurso&lt;/u&gt;" style="rounded=0;whiteSpace=wrap;html=1;" vertex="1" parent="1">
          <mxGeometry x="397" y="6533" width="210" height="60" as="geometry" />
        </mxCell>
        <mxCell id="lOrDqN2-XtBd8qI9W4t5-112" value="" style="endArrow=classic;html=1;" edge="1" parent="1">
          <mxGeometry width="50" height="50" relative="1" as="geometry">
            <mxPoint x="124" y="6560" as="sourcePoint" />
            <mxPoint x="397" y="6560" as="targetPoint" />
          </mxGeometry>
        </mxCell>
        <mxCell id="lOrDqN2-XtBd8qI9W4t5-113" style="edgeStyle=orthogonalEdgeStyle;rounded=0;orthogonalLoop=1;jettySize=auto;html=1;exitX=0.5;exitY=1;exitDx=0;exitDy=0;startArrow=none;startFill=0;endArrow=classic;endFill=1;" edge="1" parent="1" source="lOrDqN2-XtBd8qI9W4t5-108" target="lOrDqN2-XtBd8qI9W4t5-108">
          <mxGeometry relative="1" as="geometry" />
        </mxCell>
        <mxCell id="lOrDqN2-XtBd8qI9W4t5-114" value="&lt;u&gt;:Curso&lt;/u&gt;" style="rounded=0;whiteSpace=wrap;html=1;" vertex="1" parent="1">
          <mxGeometry x="839.9972464425226" y="6533.004285714285" width="120" height="60" as="geometry" />
        </mxCell>
        <mxCell id="lOrDqN2-XtBd8qI9W4t5-115" value="&amp;lt;&amp;lt;global&amp;gt;&amp;gt;" style="text;html=1;align=center;verticalAlign=middle;resizable=0;points=[];autosize=1;" vertex="1" parent="1">
          <mxGeometry x="770" y="6573" width="70" height="17" as="geometry" />
        </mxCell>
        <mxCell id="lOrDqN2-XtBd8qI9W4t5-116" value="1:&amp;nbsp;" style="text;html=1;align=center;verticalAlign=middle;resizable=0;points=[];autosize=1;" vertex="1" parent="1">
          <mxGeometry x="610" y="6536" width="23" height="17" as="geometry" />
        </mxCell>
        <mxCell id="lOrDqN2-XtBd8qI9W4t5-117" value="c := find(curso)" style="text;html=1;align=center;verticalAlign=middle;resizable=0;points=[];autosize=1;" vertex="1" parent="1">
          <mxGeometry x="676" y="6536" width="90" height="17" as="geometry" />
        </mxCell>
        <mxCell id="lOrDqN2-XtBd8qI9W4t5-118" style="edgeStyle=orthogonalEdgeStyle;rounded=0;orthogonalLoop=1;jettySize=auto;html=1;exitX=1;exitY=0.5;exitDx=0;exitDy=0;startArrow=none;startFill=0;endArrow=classic;endFill=1;" edge="1" parent="1" source="lOrDqN2-XtBd8qI9W4t5-120" target="lOrDqN2-XtBd8qI9W4t5-124">
          <mxGeometry relative="1" as="geometry">
            <mxPoint x="690" y="6767" as="targetPoint" />
            <Array as="points">
              <mxPoint x="548" y="6767" />
              <mxPoint x="548" y="6767" />
            </Array>
          </mxGeometry>
        </mxCell>
        <mxCell id="lOrDqN2-XtBd8qI9W4t5-119" style="edgeStyle=orthogonalEdgeStyle;rounded=0;orthogonalLoop=1;jettySize=auto;html=1;exitX=0.5;exitY=1;exitDx=0;exitDy=0;startArrow=none;startFill=0;endArrow=classic;endFill=1;" edge="1" parent="1" source="lOrDqN2-XtBd8qI9W4t5-120" target="lOrDqN2-XtBd8qI9W4t5-128">
          <mxGeometry relative="1" as="geometry">
            <mxPoint x="593.8959045410156" y="6982.569488525391" as="targetPoint" />
            <Array as="points">
              <mxPoint x="196" y="6936" />
            </Array>
          </mxGeometry>
        </mxCell>
        <mxCell id="lOrDqN2-XtBd8qI9W4t5-120" value="&lt;u&gt;c: Curso&lt;/u&gt;" style="rounded=0;whiteSpace=wrap;html=1;" vertex="1" parent="1">
          <mxGeometry x="135.57" y="6733.0599999999995" width="120" height="66.94" as="geometry" />
        </mxCell>
        <mxCell id="lOrDqN2-XtBd8qI9W4t5-121" value="2:" style="text;html=1;align=center;verticalAlign=middle;resizable=0;points=[];autosize=1;" vertex="1" parent="1">
          <mxGeometry x="421" y="6597" width="20" height="17" as="geometry" />
        </mxCell>
        <mxCell id="lOrDqN2-XtBd8qI9W4t5-122" value="obtenerEdiciones():set(string)" style="text;html=1;align=center;verticalAlign=middle;resizable=0;points=[];autosize=1;" vertex="1" parent="1">
          <mxGeometry x="218" y="6638" width="167" height="17" as="geometry" />
        </mxCell>
        <mxCell id="lOrDqN2-XtBd8qI9W4t5-123" value="&amp;lt;&amp;lt;local&amp;gt;&amp;gt;" style="text;html=1;align=center;verticalAlign=middle;resizable=0;points=[];autosize=1;" vertex="1" parent="1">
          <mxGeometry x="125" y="6713" width="62" height="17" as="geometry" />
        </mxCell>
        <mxCell id="lOrDqN2-XtBd8qI9W4t5-124" value="&lt;u&gt;:Edicion&lt;/u&gt;" style="rounded=0;whiteSpace=wrap;html=1;" vertex="1" parent="1">
          <mxGeometry x="578" y="6736.530000000001" width="120" height="60" as="geometry" />
        </mxCell>
        <mxCell id="lOrDqN2-XtBd8qI9W4t5-125" value="&amp;lt;&amp;lt;association&amp;gt;&amp;gt;" style="text;html=1;align=center;verticalAlign=middle;resizable=0;points=[];autosize=1;" vertex="1" parent="1">
          <mxGeometry x="474" y="6779.530000000001" width="98" height="17" as="geometry" />
        </mxCell>
        <mxCell id="lOrDqN2-XtBd8qI9W4t5-126" value="2.1* [foreach];" style="text;html=1;align=center;verticalAlign=middle;resizable=0;points=[];autosize=1;" vertex="1" parent="1">
          <mxGeometry x="259" y="6736.530000000001" width="84" height="17" as="geometry" />
        </mxCell>
        <mxCell id="lOrDqN2-XtBd8qI9W4t5-127" value="e := next()" style="text;html=1;align=center;verticalAlign=middle;resizable=0;points=[];autosize=1;" vertex="1" parent="1">
          <mxGeometry x="410" y="6736.530000000001" width="64" height="17" as="geometry" />
        </mxCell>
        <mxCell id="lOrDqN2-XtBd8qI9W4t5-128" value="&lt;u&gt;e: Edicion&lt;/u&gt;" style="rounded=0;whiteSpace=wrap;html=1;" vertex="1" parent="1">
          <mxGeometry x="574.9959045410156" y="6896.999488525391" width="120" height="60" as="geometry" />
        </mxCell>
        <mxCell id="lOrDqN2-XtBd8qI9W4t5-129" value="&amp;lt;&amp;lt;local&amp;gt;&amp;gt;" style="text;html=1;align=center;verticalAlign=middle;resizable=0;points=[];autosize=1;" vertex="1" parent="1">
          <mxGeometry x="481" y="6947" width="62" height="17" as="geometry" />
        </mxCell>
        <mxCell id="lOrDqN2-XtBd8qI9W4t5-130" value="2.2*:&amp;nbsp;" style="text;html=1;align=center;verticalAlign=middle;resizable=0;points=[];autosize=1;" vertex="1" parent="1">
          <mxGeometry x="199.5" y="6803" width="38" height="17" as="geometry" />
        </mxCell>
        <mxCell id="lOrDqN2-XtBd8qI9W4t5-131" value="n := getNombre(): string" style="text;html=1;align=center;verticalAlign=middle;resizable=0;points=[];autosize=1;" vertex="1" parent="1">
          <mxGeometry x="295" y="6907" width="137" height="17" as="geometry" />
        </mxCell>
        <mxCell id="lOrDqN2-XtBd8qI9W4t5-132" value="" style="endArrow=none;dashed=1;html=1;dashPattern=1 3;strokeWidth=2;exitX=1;exitY=0;exitDx=0;exitDy=0;" edge="1" parent="1" source="lOrDqN2-XtBd8qI9W4t5-120" target="lOrDqN2-XtBd8qI9W4t5-133">
          <mxGeometry width="50" height="50" relative="1" as="geometry">
            <mxPoint x="622" y="6649" as="sourcePoint" />
            <mxPoint x="809" y="6667" as="targetPoint" />
          </mxGeometry>
        </mxCell>
        <mxCell id="lOrDqN2-XtBd8qI9W4t5-133" value="Construye y retorna un set(string) con todos los n obtenidos." style="shape=note;whiteSpace=wrap;html=1;backgroundOutline=1;darkOpacity=0.05;size=20;" vertex="1" parent="1">
          <mxGeometry x="749" y="6638" width="121" height="107" as="geometry" />
        </mxCell>
        <mxCell id="lOrDqN2-XtBd8qI9W4t5-134" value="ingresarEdicion(edicion:string): DtEdicion" style="text;html=1;strokeColor=none;fillColor=none;align=center;verticalAlign=middle;whiteSpace=wrap;rounded=0;" vertex="1" parent="1">
          <mxGeometry x="803" y="6219" width="288" height="20" as="geometry" />
        </mxCell>
        <mxCell id="lOrDqN2-XtBd8qI9W4t5-135" style="edgeStyle=orthogonalEdgeStyle;rounded=0;orthogonalLoop=1;jettySize=auto;html=1;exitX=1;exitY=0.5;exitDx=0;exitDy=0;startArrow=none;startFill=0;endArrow=classic;endFill=1;" edge="1" parent="1" source="lOrDqN2-XtBd8qI9W4t5-138" target="lOrDqN2-XtBd8qI9W4t5-140">
          <mxGeometry relative="1" as="geometry">
            <mxPoint x="1522.341531192555" y="6241.764705882353" as="targetPoint" />
          </mxGeometry>
        </mxCell>
        <mxCell id="lOrDqN2-XtBd8qI9W4t5-136" style="edgeStyle=orthogonalEdgeStyle;rounded=0;orthogonalLoop=1;jettySize=auto;html=1;exitX=0.5;exitY=1;exitDx=0;exitDy=0;startArrow=none;startFill=0;endArrow=classic;endFill=1;" edge="1" parent="1" source="lOrDqN2-XtBd8qI9W4t5-138" target="lOrDqN2-XtBd8qI9W4t5-144">
          <mxGeometry relative="1" as="geometry">
            <mxPoint x="1335.0069885253906" y="6518.125091552734" as="targetPoint" />
          </mxGeometry>
        </mxCell>
        <mxCell id="lOrDqN2-XtBd8qI9W4t5-137" style="edgeStyle=orthogonalEdgeStyle;rounded=0;orthogonalLoop=1;jettySize=auto;html=1;exitX=0.25;exitY=1;exitDx=0;exitDy=0;startArrow=none;startFill=0;endArrow=classic;endFill=1;" edge="1" parent="1" source="lOrDqN2-XtBd8qI9W4t5-138">
          <mxGeometry relative="1" as="geometry">
            <mxPoint x="1083.895965576171" y="6584.791717529297" as="targetPoint" />
          </mxGeometry>
        </mxCell>
        <mxCell id="lOrDqN2-XtBd8qI9W4t5-138" value="&lt;u&gt;:ControladorConsultaEdiciondeCurso&lt;/u&gt;" style="rounded=0;whiteSpace=wrap;html=1;" vertex="1" parent="1">
          <mxGeometry x="1074" y="6212" width="208" height="60" as="geometry" />
        </mxCell>
        <mxCell id="lOrDqN2-XtBd8qI9W4t5-139" value="" style="endArrow=classic;html=1;" edge="1" parent="1">
          <mxGeometry width="50" height="50" relative="1" as="geometry">
            <mxPoint x="830" y="6244" as="sourcePoint" />
            <mxPoint x="1074" y="6244" as="targetPoint" />
          </mxGeometry>
        </mxCell>
        <mxCell id="lOrDqN2-XtBd8qI9W4t5-140" value="&lt;u&gt;:Edicion&lt;/u&gt;" style="rounded=0;whiteSpace=wrap;html=1;" vertex="1" parent="1">
          <mxGeometry x="1479.0015311925551" y="6212.004705882353" width="120" height="60" as="geometry" />
        </mxCell>
        <mxCell id="lOrDqN2-XtBd8qI9W4t5-141" value="1:&amp;nbsp;" style="text;html=1;align=center;verticalAlign=middle;resizable=0;points=[];autosize=1;" vertex="1" parent="1">
          <mxGeometry x="1284" y="6215" width="23" height="17" as="geometry" />
        </mxCell>
        <mxCell id="lOrDqN2-XtBd8qI9W4t5-142" value="&amp;lt;&amp;lt;global&amp;gt;&amp;gt;" style="text;html=1;align=center;verticalAlign=middle;resizable=0;points=[];autosize=1;" vertex="1" parent="1">
          <mxGeometry x="1405" y="6252" width="70" height="17" as="geometry" />
        </mxCell>
        <mxCell id="lOrDqN2-XtBd8qI9W4t5-143" value="e := find(edicion)" style="text;html=1;align=center;verticalAlign=middle;resizable=0;points=[];autosize=1;" vertex="1" parent="1">
          <mxGeometry x="1331" y="6219" width="99" height="17" as="geometry" />
        </mxCell>
        <mxCell id="lOrDqN2-XtBd8qI9W4t5-144" value="&lt;u&gt;e: Edicion&lt;/u&gt;" style="rounded=0;whiteSpace=wrap;html=1;" vertex="1" parent="1">
          <mxGeometry x="1293.9969885253906" y="6424.995091552734" width="120" height="60" as="geometry" />
        </mxCell>
        <mxCell id="lOrDqN2-XtBd8qI9W4t5-145" value="2:&amp;nbsp;" style="text;html=1;align=center;verticalAlign=middle;resizable=0;points=[];autosize=1;" vertex="1" parent="1">
          <mxGeometry x="1180" y="6273" width="23" height="17" as="geometry" />
        </mxCell>
        <mxCell id="lOrDqN2-XtBd8qI9W4t5-146" value="&amp;lt;&amp;lt;local&amp;gt;&amp;gt;" style="text;html=1;align=center;verticalAlign=middle;resizable=0;points=[];autosize=1;" vertex="1" parent="1">
          <mxGeometry x="1284" y="6402" width="62" height="17" as="geometry" />
        </mxCell>
        <mxCell id="lOrDqN2-XtBd8qI9W4t5-147" value="obtenerDatosEdicion(): DtEdicion" style="text;html=1;align=center;verticalAlign=middle;resizable=0;points=[];autosize=1;" vertex="1" parent="1">
          <mxGeometry x="1183.5" y="6325" width="187" height="17" as="geometry" />
        </mxCell>
        <mxCell id="lOrDqN2-XtBd8qI9W4t5-148" style="edgeStyle=orthogonalEdgeStyle;rounded=0;orthogonalLoop=1;jettySize=auto;html=1;exitX=1;exitY=0.5;exitDx=0;exitDy=0;entryX=0.75;entryY=1;entryDx=0;entryDy=0;startArrow=none;startFill=0;endArrow=classic;endFill=1;" edge="1" parent="1" source="lOrDqN2-XtBd8qI9W4t5-144" target="lOrDqN2-XtBd8qI9W4t5-144">
          <mxGeometry relative="1" as="geometry" />
        </mxCell>
        <mxCell id="lOrDqN2-XtBd8qI9W4t5-149" value="2.1: n := getNombre(): string&lt;br&gt;2.2: fi := get&lt;span&gt;fechaI(): DtFecha&lt;br&gt;&lt;/span&gt;2.3: ff := fechaF(): DtFecha&lt;br style=&quot;padding: 0px ; margin: 0px&quot;&gt;2.4: c := getCupo(): int&lt;br&gt;&lt;div style=&quot;padding: 0px ; margin: 0px&quot;&gt;&lt;br style=&quot;padding: 0px ; margin: 0px&quot;&gt;&lt;/div&gt;&lt;div style=&quot;padding: 0px ; margin: 0px&quot;&gt;&lt;br style=&quot;padding: 0px ; margin: 0px&quot;&gt;&lt;/div&gt;&lt;div style=&quot;padding: 0px ; margin: 0px&quot;&gt;&lt;br style=&quot;padding: 0px ; margin: 0px&quot;&gt;&lt;/div&gt;" style="text;html=1;align=left;verticalAlign=middle;resizable=0;points=[];autosize=1;" vertex="1" parent="1">
          <mxGeometry x="1443" y="6452" width="166" height="97" as="geometry" />
        </mxCell>
        <mxCell id="lOrDqN2-XtBd8qI9W4t5-150" value="Falta sacar cursos en DtEdicion!" style="text;html=1;align=center;verticalAlign=middle;resizable=0;points=[];autosize=1;" vertex="1" parent="1">
          <mxGeometry x="1142" y="6519" width="182" height="17" as="geometry" />
        </mxCell>
        <mxCell id="lOrDqN2-XtBd8qI9W4t5-151" value="" style="endArrow=none;dashed=1;html=1;dashPattern=1 3;strokeWidth=2;exitX=0.75;exitY=0;exitDx=0;exitDy=0;" edge="1" parent="1" source="lOrDqN2-XtBd8qI9W4t5-144" target="lOrDqN2-XtBd8qI9W4t5-152">
          <mxGeometry width="50" height="50" relative="1" as="geometry">
            <mxPoint x="1414" y="6435.5" as="sourcePoint" />
            <mxPoint x="1481" y="6366" as="targetPoint" />
          </mxGeometry>
        </mxCell>
        <mxCell id="lOrDqN2-XtBd8qI9W4t5-152" value="Se construye y retorna un DtEdicion con los datos obtenidos y curso vacio." style="shape=note;whiteSpace=wrap;html=1;backgroundOutline=1;darkOpacity=0.05;size=14;" vertex="1" parent="1">
          <mxGeometry x="1453" y="6313" width="117" height="109" as="geometry" />
        </mxCell>
        <mxCell id="lOrDqN2-XtBd8qI9W4t5-153" value="&lt;font style=&quot;font-size: 35px&quot;&gt;&lt;b&gt;Agregar Curso a Programa de Formación&lt;/b&gt;&lt;/font&gt;" style="text;html=1;align=center;verticalAlign=middle;resizable=0;points=[];autosize=1;" vertex="1" parent="1">
          <mxGeometry x="69" y="7054" width="697" height="25" as="geometry" />
        </mxCell>
        <mxCell id="lOrDqN2-XtBd8qI9W4t5-154" value="getProgramas(): set(string)" style="text;html=1;strokeColor=none;fillColor=none;align=center;verticalAlign=middle;whiteSpace=wrap;rounded=0;" vertex="1" parent="1">
          <mxGeometry x="80" y="7180" width="252" height="20" as="geometry" />
        </mxCell>
        <mxCell id="lOrDqN2-XtBd8qI9W4t5-155" style="edgeStyle=orthogonalEdgeStyle;rounded=0;orthogonalLoop=1;jettySize=auto;html=1;exitX=1;exitY=0.5;exitDx=0;exitDy=0;startArrow=none;startFill=0;endArrow=classic;endFill=1;" edge="1" parent="1" source="lOrDqN2-XtBd8qI9W4t5-157" target="lOrDqN2-XtBd8qI9W4t5-159">
          <mxGeometry relative="1" as="geometry">
            <mxPoint x="761.5338221958705" y="7212.714285714286" as="targetPoint" />
          </mxGeometry>
        </mxCell>
        <mxCell id="lOrDqN2-XtBd8qI9W4t5-156" style="edgeStyle=orthogonalEdgeStyle;rounded=0;orthogonalLoop=1;jettySize=auto;html=1;exitX=0.25;exitY=1;exitDx=0;exitDy=0;startArrow=none;startFill=0;endArrow=classic;endFill=1;" edge="1" parent="1" source="lOrDqN2-XtBd8qI9W4t5-157" target="lOrDqN2-XtBd8qI9W4t5-163">
          <mxGeometry relative="1" as="geometry">
            <mxPoint x="139.33501120174628" y="7373.807193531709" as="targetPoint" />
          </mxGeometry>
        </mxCell>
        <mxCell id="lOrDqN2-XtBd8qI9W4t5-157" value="&lt;u&gt;:ControladorAgregarCurso&lt;/u&gt;" style="rounded=0;whiteSpace=wrap;html=1;" vertex="1" parent="1">
          <mxGeometry x="328" y="7183" width="160" height="60" as="geometry" />
        </mxCell>
        <mxCell id="lOrDqN2-XtBd8qI9W4t5-158" value="" style="endArrow=classic;html=1;" edge="1" parent="1">
          <mxGeometry width="50" height="50" relative="1" as="geometry">
            <mxPoint x="79" y="7209" as="sourcePoint" />
            <mxPoint x="328.0000000000009" y="7209" as="targetPoint" />
          </mxGeometry>
        </mxCell>
        <mxCell id="lOrDqN2-XtBd8qI9W4t5-159" value="&lt;u&gt;:ProgramadeFormacion&lt;/u&gt;" style="rounded=0;whiteSpace=wrap;html=1;" vertex="1" parent="1">
          <mxGeometry x="721" y="7183" width="137" height="60" as="geometry" />
        </mxCell>
        <mxCell id="lOrDqN2-XtBd8qI9W4t5-160" value="1*[foreach]:" style="text;html=1;align=center;verticalAlign=middle;resizable=0;points=[];autosize=1;" vertex="1" parent="1">
          <mxGeometry x="487.5" y="7183" width="71" height="17" as="geometry" />
        </mxCell>
        <mxCell id="lOrDqN2-XtBd8qI9W4t5-161" value="&amp;lt;&amp;lt;global&amp;gt;&amp;gt;" style="text;html=1;align=center;verticalAlign=middle;resizable=0;points=[];autosize=1;" vertex="1" parent="1">
          <mxGeometry x="646" y="7220" width="70" height="17" as="geometry" />
        </mxCell>
        <mxCell id="lOrDqN2-XtBd8qI9W4t5-162" value="pf := next()" style="text;html=1;align=center;verticalAlign=middle;resizable=0;points=[];autosize=1;" vertex="1" parent="1">
          <mxGeometry x="590" y="7190" width="68" height="17" as="geometry" />
        </mxCell>
        <mxCell id="lOrDqN2-XtBd8qI9W4t5-163" value="&lt;u&gt;pf: ProgramadeFormacion&lt;/u&gt;" style="rounded=0;whiteSpace=wrap;html=1;" vertex="1" parent="1">
          <mxGeometry x="108" y="7359" width="135" height="63" as="geometry" />
        </mxCell>
        <mxCell id="lOrDqN2-XtBd8qI9W4t5-164" value="&amp;lt;&amp;lt;local&amp;gt;&amp;gt;" style="text;html=1;align=center;verticalAlign=middle;resizable=0;points=[];autosize=1;" vertex="1" parent="1">
          <mxGeometry x="176" y="7340" width="62" height="17" as="geometry" />
        </mxCell>
        <mxCell id="lOrDqN2-XtBd8qI9W4t5-165" value="2*:" style="text;html=1;align=center;verticalAlign=middle;resizable=0;points=[];autosize=1;" vertex="1" parent="1">
          <mxGeometry x="338" y="7243" width="24" height="17" as="geometry" />
        </mxCell>
        <mxCell id="lOrDqN2-XtBd8qI9W4t5-166" value="n := getNombre(): string" style="text;html=1;align=center;verticalAlign=middle;resizable=0;points=[];autosize=1;" vertex="1" parent="1">
          <mxGeometry x="189" y="7280" width="137" height="17" as="geometry" />
        </mxCell>
        <mxCell id="lOrDqN2-XtBd8qI9W4t5-167" value="" style="endArrow=none;dashed=1;html=1;dashPattern=1 3;strokeWidth=2;entryX=0.75;entryY=1;entryDx=0;entryDy=0;exitX=0;exitY=0;exitDx=25;exitDy=0;exitPerimeter=0;" edge="1" parent="1" source="lOrDqN2-XtBd8qI9W4t5-168" target="lOrDqN2-XtBd8qI9W4t5-157">
          <mxGeometry width="50" height="50" relative="1" as="geometry">
            <mxPoint x="532" y="7381" as="sourcePoint" />
            <mxPoint x="582" y="7331" as="targetPoint" />
          </mxGeometry>
        </mxCell>
        <mxCell id="lOrDqN2-XtBd8qI9W4t5-168" value="Construye y retorna un set(string) con todos los n obtenidos." style="shape=note;whiteSpace=wrap;html=1;backgroundOutline=1;darkOpacity=0.05;size=17;" vertex="1" parent="1">
          <mxGeometry x="406" y="7292" width="106" height="120" as="geometry" />
        </mxCell>
        <mxCell id="lOrDqN2-XtBd8qI9W4t5-169" value="seleccionarPrograma(nombrePf: string): set(string)" style="text;html=1;strokeColor=none;fillColor=none;align=center;verticalAlign=middle;whiteSpace=wrap;rounded=0;" vertex="1" parent="1">
          <mxGeometry x="114" y="7692" width="283" height="20" as="geometry" />
        </mxCell>
        <mxCell id="lOrDqN2-XtBd8qI9W4t5-170" style="edgeStyle=orthogonalEdgeStyle;rounded=0;orthogonalLoop=1;jettySize=auto;html=1;exitX=1;exitY=0.5;exitDx=0;exitDy=0;startArrow=none;startFill=0;endArrow=classic;endFill=1;" edge="1" parent="1" source="lOrDqN2-XtBd8qI9W4t5-172" target="lOrDqN2-XtBd8qI9W4t5-176">
          <mxGeometry relative="1" as="geometry">
            <mxPoint x="794.2369959214154" y="7719.411764705883" as="targetPoint" />
          </mxGeometry>
        </mxCell>
        <mxCell id="lOrDqN2-XtBd8qI9W4t5-171" style="edgeStyle=orthogonalEdgeStyle;rounded=0;orthogonalLoop=1;jettySize=auto;html=1;exitX=0.25;exitY=1;exitDx=0;exitDy=0;startArrow=none;startFill=0;endArrow=classic;endFill=1;" edge="1" parent="1" source="lOrDqN2-XtBd8qI9W4t5-172" target="lOrDqN2-XtBd8qI9W4t5-180">
          <mxGeometry relative="1" as="geometry">
            <mxPoint x="158.94287827435664" y="7895.3759765625" as="targetPoint" />
          </mxGeometry>
        </mxCell>
        <mxCell id="lOrDqN2-XtBd8qI9W4t5-172" value="&lt;u&gt;:ControladorAgregarCurso&lt;/u&gt;" style="rounded=0;whiteSpace=wrap;html=1;" vertex="1" parent="1">
          <mxGeometry x="398.5" y="7689" width="160" height="60" as="geometry" />
        </mxCell>
        <mxCell id="lOrDqN2-XtBd8qI9W4t5-173" value="" style="endArrow=classic;html=1;" edge="1" parent="1">
          <mxGeometry width="50" height="50" relative="1" as="geometry">
            <mxPoint x="148.0000000000009" y="7719.000000000001" as="sourcePoint" />
            <mxPoint x="397" y="7719.000000000001" as="targetPoint" />
          </mxGeometry>
        </mxCell>
        <mxCell id="lOrDqN2-XtBd8qI9W4t5-174" value="" style="endArrow=none;dashed=1;html=1;dashPattern=1 3;strokeWidth=2;exitX=0.5;exitY=0;exitDx=0;exitDy=0;" edge="1" parent="1" source="lOrDqN2-XtBd8qI9W4t5-172" target="lOrDqN2-XtBd8qI9W4t5-175">
          <mxGeometry width="50" height="50" relative="1" as="geometry">
            <mxPoint x="544" y="7680" as="sourcePoint" />
            <mxPoint x="594" y="7630" as="targetPoint" />
          </mxGeometry>
        </mxCell>
        <mxCell id="lOrDqN2-XtBd8qI9W4t5-175" value="El sistema recuerda el nombre ingresado." style="shape=note;whiteSpace=wrap;html=1;backgroundOutline=1;darkOpacity=0.05;size=17;" vertex="1" parent="1">
          <mxGeometry x="527" y="7553" width="80" height="100" as="geometry" />
        </mxCell>
        <mxCell id="lOrDqN2-XtBd8qI9W4t5-176" value="&lt;u&gt;:Curso&lt;/u&gt;" style="rounded=0;whiteSpace=wrap;html=1;" vertex="1" parent="1">
          <mxGeometry x="776.9969959214154" y="7689.001764705883" width="120" height="60" as="geometry" />
        </mxCell>
        <mxCell id="lOrDqN2-XtBd8qI9W4t5-177" value="1*[foreach]:" style="text;html=1;align=center;verticalAlign=middle;resizable=0;points=[];autosize=1;" vertex="1" parent="1">
          <mxGeometry x="562" y="7692" width="71" height="17" as="geometry" />
        </mxCell>
        <mxCell id="lOrDqN2-XtBd8qI9W4t5-178" value="&amp;lt;&amp;lt;global&amp;gt;&amp;gt;" style="text;html=1;align=center;verticalAlign=middle;resizable=0;points=[];autosize=1;" vertex="1" parent="1">
          <mxGeometry x="703" y="7728" width="70" height="17" as="geometry" />
        </mxCell>
        <mxCell id="lOrDqN2-XtBd8qI9W4t5-179" value="c := next()" style="text;html=1;align=center;verticalAlign=middle;resizable=0;points=[];autosize=1;" vertex="1" parent="1">
          <mxGeometry x="668" y="7692" width="63" height="17" as="geometry" />
        </mxCell>
        <mxCell id="lOrDqN2-XtBd8qI9W4t5-180" value="&lt;u&gt;c: Curso&lt;/u&gt;" style="rounded=0;whiteSpace=wrap;html=1;" vertex="1" parent="1">
          <mxGeometry x="181.00287827435642" y="7897.9959765625" width="120" height="60" as="geometry" />
        </mxCell>
        <mxCell id="lOrDqN2-XtBd8qI9W4t5-181" value="&amp;lt;&amp;lt;local&amp;gt;&amp;gt;" style="text;html=1;align=center;verticalAlign=middle;resizable=0;points=[];autosize=1;" vertex="1" parent="1">
          <mxGeometry x="250.5" y="7872" width="62" height="17" as="geometry" />
        </mxCell>
        <mxCell id="lOrDqN2-XtBd8qI9W4t5-182" value="2*:" style="text;html=1;align=center;verticalAlign=middle;resizable=0;points=[];autosize=1;" vertex="1" parent="1">
          <mxGeometry x="404" y="7756" width="24" height="17" as="geometry" />
        </mxCell>
        <mxCell id="lOrDqN2-XtBd8qI9W4t5-183" value="n := getNombre():string" style="text;html=1;align=center;verticalAlign=middle;resizable=0;points=[];autosize=1;" vertex="1" parent="1">
          <mxGeometry x="264" y="7799" width="133" height="17" as="geometry" />
        </mxCell>
        <mxCell id="lOrDqN2-XtBd8qI9W4t5-184" value="" style="endArrow=none;dashed=1;html=1;dashPattern=1 3;strokeWidth=2;entryX=0.5;entryY=1;entryDx=0;entryDy=0;" edge="1" parent="1" target="lOrDqN2-XtBd8qI9W4t5-172">
          <mxGeometry width="50" height="50" relative="1" as="geometry">
            <mxPoint x="528.0000000000009" y="7850" as="sourcePoint" />
            <mxPoint x="545" y="7785" as="targetPoint" />
          </mxGeometry>
        </mxCell>
        <mxCell id="lOrDqN2-XtBd8qI9W4t5-185" value="Construye y retorna un set(string) con todos los n obtenidos." style="shape=note;whiteSpace=wrap;html=1;backgroundOutline=1;darkOpacity=0.05;size=14;" vertex="1" parent="1">
          <mxGeometry x="505" y="7833" width="80" height="100" as="geometry" />
        </mxCell>
        <mxCell id="lOrDqN2-XtBd8qI9W4t5-186" value="seleccionarCurso(nombreC: string)" style="text;html=1;strokeColor=none;fillColor=none;align=center;verticalAlign=middle;whiteSpace=wrap;rounded=0;" vertex="1" parent="1">
          <mxGeometry x="762" y="7429" width="204" height="20" as="geometry" />
        </mxCell>
        <mxCell id="lOrDqN2-XtBd8qI9W4t5-187" style="edgeStyle=orthogonalEdgeStyle;rounded=0;orthogonalLoop=1;jettySize=auto;html=1;exitX=1;exitY=0.5;exitDx=0;exitDy=0;startArrow=none;startFill=0;endArrow=classic;endFill=1;" edge="1" parent="1" source="lOrDqN2-XtBd8qI9W4t5-189" target="lOrDqN2-XtBd8qI9W4t5-191">
          <mxGeometry relative="1" as="geometry">
            <mxPoint x="1382.472361845129" y="7452.35294117647" as="targetPoint" />
          </mxGeometry>
        </mxCell>
        <mxCell id="lOrDqN2-XtBd8qI9W4t5-188" style="edgeStyle=orthogonalEdgeStyle;rounded=0;orthogonalLoop=1;jettySize=auto;html=1;exitX=0.25;exitY=1;exitDx=0;exitDy=0;startArrow=none;startFill=0;endArrow=classic;endFill=1;" edge="1" parent="1" source="lOrDqN2-XtBd8qI9W4t5-189" target="lOrDqN2-XtBd8qI9W4t5-196">
          <mxGeometry relative="1" as="geometry">
            <mxPoint x="1247.8318230124082" y="7692.761625402114" as="targetPoint" />
            <Array as="points">
              <mxPoint x="1010" y="7649" />
              <mxPoint x="1281" y="7649" />
            </Array>
          </mxGeometry>
        </mxCell>
        <mxCell id="lOrDqN2-XtBd8qI9W4t5-189" value="&lt;u&gt;:ControladorAgregarCurso&lt;/u&gt;" style="rounded=0;whiteSpace=wrap;html=1;" vertex="1" parent="1">
          <mxGeometry x="970" y="7422" width="160" height="60" as="geometry" />
        </mxCell>
        <mxCell id="lOrDqN2-XtBd8qI9W4t5-190" value="" style="endArrow=classic;html=1;" edge="1" parent="1">
          <mxGeometry width="50" height="50" relative="1" as="geometry">
            <mxPoint x="737" y="7452" as="sourcePoint" />
            <mxPoint x="970" y="7452" as="targetPoint" />
          </mxGeometry>
        </mxCell>
        <mxCell id="lOrDqN2-XtBd8qI9W4t5-191" value="&lt;u&gt;:Curso&lt;/u&gt;" style="rounded=0;whiteSpace=wrap;html=1;" vertex="1" parent="1">
          <mxGeometry x="1450.002361845129" y="7422.002941176471" width="120" height="60" as="geometry" />
        </mxCell>
        <mxCell id="lOrDqN2-XtBd8qI9W4t5-192" value="&amp;lt;&amp;lt;global&amp;gt;&amp;gt;" style="text;html=1;align=center;verticalAlign=middle;resizable=0;points=[];autosize=1;" vertex="1" parent="1">
          <mxGeometry x="1378" y="7458" width="70" height="17" as="geometry" />
        </mxCell>
        <mxCell id="lOrDqN2-XtBd8qI9W4t5-193" value="1:&amp;nbsp;" style="text;html=1;align=center;verticalAlign=middle;resizable=0;points=[];autosize=1;" vertex="1" parent="1">
          <mxGeometry x="1136" y="7426" width="23" height="17" as="geometry" />
        </mxCell>
        <mxCell id="lOrDqN2-XtBd8qI9W4t5-194" value="c := find(nombreC)" style="text;html=1;align=center;verticalAlign=middle;resizable=0;points=[];autosize=1;" vertex="1" parent="1">
          <mxGeometry x="1236" y="7426" width="110" height="17" as="geometry" />
        </mxCell>
        <mxCell id="lOrDqN2-XtBd8qI9W4t5-195" style="edgeStyle=orthogonalEdgeStyle;rounded=0;orthogonalLoop=1;jettySize=auto;html=1;exitX=1;exitY=0.5;exitDx=0;exitDy=0;startArrow=none;startFill=0;endArrow=classic;endFill=1;" edge="1" parent="1" source="lOrDqN2-XtBd8qI9W4t5-196" target="lOrDqN2-XtBd8qI9W4t5-200">
          <mxGeometry relative="1" as="geometry">
            <mxPoint x="1501.4265782973348" y="7648.823529411765" as="targetPoint" />
          </mxGeometry>
        </mxCell>
        <mxCell id="lOrDqN2-XtBd8qI9W4t5-196" value="&lt;u&gt;c: Curso&lt;/u&gt;" style="rounded=0;whiteSpace=wrap;html=1;" vertex="1" parent="1">
          <mxGeometry x="1200.0018230124083" y="7619.001625402114" width="120" height="60" as="geometry" />
        </mxCell>
        <mxCell id="lOrDqN2-XtBd8qI9W4t5-197" value="2:&amp;nbsp;" style="text;html=1;align=center;verticalAlign=middle;resizable=0;points=[];autosize=1;" vertex="1" parent="1">
          <mxGeometry x="1018.5" y="7489" width="23" height="17" as="geometry" />
        </mxCell>
        <mxCell id="lOrDqN2-XtBd8qI9W4t5-198" value="&amp;lt;&amp;lt;local&amp;gt;&amp;gt;" style="text;html=1;align=center;verticalAlign=middle;resizable=0;points=[];autosize=1;" vertex="1" parent="1">
          <mxGeometry x="1130" y="7656" width="62" height="17" as="geometry" />
        </mxCell>
        <mxCell id="lOrDqN2-XtBd8qI9W4t5-199" value="agregarAPf()" style="text;html=1;align=center;verticalAlign=middle;resizable=0;points=[];autosize=1;" vertex="1" parent="1">
          <mxGeometry x="1063" y="7619" width="79" height="17" as="geometry" />
        </mxCell>
        <mxCell id="lOrDqN2-XtBd8qI9W4t5-200" value=":ProgramaDeFormacion" style="rounded=0;whiteSpace=wrap;html=1;" vertex="1" parent="1">
          <mxGeometry x="1501" y="7619" width="133" height="60" as="geometry" />
        </mxCell>
        <mxCell id="lOrDqN2-XtBd8qI9W4t5-201" value="2.1:" style="text;html=1;align=center;verticalAlign=middle;resizable=0;points=[];autosize=1;" vertex="1" parent="1">
          <mxGeometry x="1324" y="7619" width="30" height="17" as="geometry" />
        </mxCell>
        <mxCell id="lOrDqN2-XtBd8qI9W4t5-202" value="&amp;lt;&amp;lt;association&amp;gt;&amp;gt;" style="text;html=1;align=center;verticalAlign=middle;resizable=0;points=[];autosize=1;" vertex="1" parent="1">
          <mxGeometry x="1399" y="7656" width="98" height="17" as="geometry" />
        </mxCell>
        <mxCell id="lOrDqN2-XtBd8qI9W4t5-203" value="add(nombrePf)" style="text;html=1;align=center;verticalAlign=middle;resizable=0;points=[];autosize=1;" vertex="1" parent="1">
          <mxGeometry x="1370.5" y="7622" width="90" height="17" as="geometry" />
        </mxCell>
        <mxCell id="lOrDqN2-XtBd8qI9W4t5-204" value="&lt;font color=&quot;#ff3333&quot; style=&quot;font-size: 20px&quot;&gt;DUDA&lt;/font&gt;" style="text;html=1;align=center;verticalAlign=middle;resizable=0;points=[];autosize=1;" vertex="1" parent="1">
          <mxGeometry x="1375" y="7716" width="67" height="20" as="geometry" />
        </mxCell>
        <mxCell id="lOrDqN2-XtBd8qI9W4t5-205" value="&lt;font color=&quot;#ff3333&quot; style=&quot;font-size: 20px&quot;&gt;DUDA&lt;/font&gt;" style="text;html=1;align=center;verticalAlign=middle;resizable=0;points=[];autosize=1;" vertex="1" parent="1">
          <mxGeometry x="1196" y="6540" width="67" height="20" as="geometry" />
        </mxCell>
      </root>
    </mxGraphModel>
  </diagram>
</mxfile>
